<svg width="1280" height="832" viewBox="0 0 1280 832" fill="none" xmlns="http://www.w3.org/2000/svg">
<g filter="url(#filter0_f_174_1404)">
<path d="M219.332 357.521C219.332 403.128 295.369 449.686 295.369 449.686C295.369 449.686 371.405 403.128 371.405 357.521" stroke="#F6CABC" stroke-width="187.859" stroke-linecap="round"/>
</g>
<path d="M219.332 357.521C219.332 403.128 295.369 449.686 295.369 449.686C295.369 449.686 371.405 403.128 371.405 357.521" stroke="#F9DDB5" stroke-width="187.859" stroke-linecap="round"/>
<path d="M470.707 401.048C467.63 400.083 464.477 399.117 461.247 398.17C461.144 399.836 460.965 401.465 460.785 403.112C490.909 412.107 508.265 420.686 506.599 427.124C504.907 433.695 483.731 436.914 450.146 436.914C409.716 436.914 351.289 432.256 287.119 423.166C218.232 413.395 158.062 400.689 120.811 388.91C94.5586 380.616 79.6891 372.795 81.253 366.811C82.7656 360.941 99.7886 357.759 127.272 357.135C127.374 356.869 127.451 356.623 127.554 356.377C127.938 355.392 128.348 354.427 128.759 353.461C86.8931 354.54 61.7175 360.145 59.4358 368.951C57.0515 378.154 79.5353 390.898 121.144 403.927C121.273 403.965 121.426 404.003 121.555 404.059C164.574 417.485 223.129 429.832 286.504 438.827C342.752 446.799 396.795 451.287 440.917 451.685C446.659 451.742 452.222 451.723 457.581 451.647C502.753 450.927 530.057 445.227 532.441 436.043C534.825 426.821 512.342 414.077 470.707 401.048Z" fill="url(#paint0_linear_174_1404)"/>
<path d="M461.477 391.353V391.713C461.477 392.83 461.452 393.928 461.426 395.046C465.143 396.125 468.784 397.223 472.296 398.341C503.522 408.112 540.004 422.693 536.389 436.593C532.774 450.492 491.575 454.052 457.683 454.601C454.35 454.658 450.94 454.677 447.454 454.677C444.582 454.677 441.66 454.658 438.686 454.62C394.744 454.071 341.29 449.602 285.735 441.724C223.103 432.843 165.138 420.686 122.067 407.43C121.221 407.165 120.401 406.919 119.58 406.654C88.3544 396.883 51.8727 382.301 55.4876 368.402C58.9486 355.052 97.0454 351.245 130.117 350.469C130.809 348.973 131.553 347.477 132.348 346C76.2024 346.814 38.9003 354.446 35.2855 368.326C31.4399 383.135 66.7166 401.787 124.708 418.773C166.625 431.044 220.437 442.444 279.915 450.89C335.445 458.767 387.694 462.876 431.097 463.445C498.446 464.316 544.516 456.627 548.541 441.118C552.31 426.499 518.059 408.15 461.477 391.353Z" fill="url(#paint1_radial_174_1404)"/>
<path d="M159.785 606.128L159.612 606.401C158.831 607.637 156.932 607.234 156.721 605.787C156.643 605.257 156.303 604.803 155.816 604.581L155.133 604.269C153.742 603.633 153.562 601.73 154.81 600.845L155.031 600.688C155.449 600.392 155.685 599.903 155.658 599.391L155.628 598.82C155.562 597.582 157.104 596.965 157.911 597.908C158.34 598.409 159.076 598.509 159.623 598.14L159.686 598.098C160.73 597.394 162.094 598.335 161.807 599.56L161.547 600.673C161.42 601.212 161.544 601.779 161.884 602.216L162.146 602.553C162.97 603.613 162.32 605.17 160.99 605.354C160.496 605.422 160.052 605.706 159.785 606.128Z" fill="#FFDC5C" stroke="#FFDC5C" stroke-width="1.06032"/>
<rect width="1.60688" height="0.655222" rx="0.327611" transform="matrix(0.869952 0.493137 0.358149 -0.933664 155.64 603.808)" fill="#FFE8C7"/>
<rect width="0.910593" height="0.667651" rx="0.333825" transform="matrix(0.950831 0.30971 0.215254 -0.976558 154.345 603.343)" fill="#FFE8C7"/>
<rect width="1.61276" height="0.559255" rx="0.279628" transform="matrix(0.143548 0.989643 0.97779 -0.209587 156.997 605.029)" fill="#FFE8C7"/>
<path d="M86.6125 665.572L84.855 675.458C84.7006 676.326 84.1 677.048 83.2747 677.358L70.9173 682.003C68.9479 682.743 68.7202 685.437 70.5376 686.498L79.6511 691.814C80.4684 692.291 80.9461 693.188 80.885 694.132L80.2768 703.525C80.1295 705.8 82.8573 707.067 84.5004 705.486L91.643 698.616C92.4332 697.856 93.6269 697.7 94.5857 698.232L103.695 703.285C105.639 704.363 107.918 702.555 107.309 700.417L104.226 689.588C103.984 688.741 104.207 687.829 104.812 687.189L111.143 680.49C112.557 678.994 111.656 676.525 109.611 676.293L100.268 675.229C99.5959 675.153 98.9832 674.807 98.5707 674.27L91.0515 664.487C89.729 662.766 86.9923 663.435 86.6125 665.572Z" fill="#FFDC5C" stroke="#FFDC5C" stroke-width="0.998982"/>
<rect x="80.7354" y="680.62" width="6.24364" height="2.24771" rx="1.12385" transform="rotate(-25 80.7354 680.62)" fill="#FFE8C7"/>
<rect x="75.4902" y="682.167" width="3.62844" height="2.24771" rx="1.12385" transform="rotate(-15 75.4902 682.167)" fill="#FFE8C7"/>
<rect x="86.2295" y="676.553" width="5.39675" height="2.24771" rx="1.12385" transform="rotate(-80 86.2295 676.553)" fill="#FFE8C7"/>
<path d="M521.612 233.572L519.855 243.458C519.701 244.326 519.1 245.048 518.275 245.358L505.917 250.003C503.948 250.743 503.72 253.437 505.538 254.498L514.651 259.814C515.468 260.291 515.946 261.188 515.885 262.132L515.277 271.525C515.13 273.8 517.857 275.067 519.5 273.486L526.643 266.616C527.433 265.856 528.627 265.7 529.586 266.232L538.695 271.285C540.639 272.363 542.918 270.555 542.309 268.417L539.226 257.588C538.984 256.741 539.207 255.829 539.812 255.189L546.143 248.49C547.557 246.994 546.656 244.525 544.611 244.293L535.268 243.229C534.596 243.153 533.983 242.807 533.571 242.27L526.052 232.487C524.729 230.766 521.992 231.435 521.612 233.572Z" fill="#FFDC5C" stroke="#FFDC5C" stroke-width="0.998982"/>
<rect x="515.735" y="248.62" width="6.24364" height="2.24771" rx="1.12385" transform="rotate(-25 515.735 248.62)" fill="#FFE8C7"/>
<rect x="510.49" y="250.167" width="3.62844" height="2.24771" rx="1.12385" transform="rotate(-15 510.49 250.167)" fill="#FFE8C7"/>
<rect x="521.229" y="244.553" width="5.39675" height="2.24771" rx="1.12385" transform="rotate(-80 521.229 244.553)" fill="#FFE8C7"/>
<path d="M1130.84 138.884L1130.66 140.089C1130.57 140.711 1130.17 141.244 1129.59 141.503L1126.96 142.693C1125.65 143.282 1125.48 145.067 1126.66 145.889L1128.4 147.114C1128.93 147.48 1129.22 148.09 1129.19 148.726L1129.14 149.621C1129.05 151.375 1131.23 152.255 1132.38 150.927C1132.98 150.224 1134.02 150.084 1134.79 150.599L1135.13 150.824C1136.53 151.754 1138.34 150.492 1137.95 148.86L1137.45 146.733C1137.32 146.184 1137.44 145.607 1137.79 145.164L1139.01 143.623C1139.89 142.501 1139.22 140.844 1137.8 140.65L1136.47 140.468C1135.93 140.395 1135.46 140.09 1135.16 139.633L1134.22 138.159C1133.3 136.72 1131.09 137.194 1130.84 138.884Z" fill="#F6E7AF" stroke="#F6E7AF" stroke-width="0.738947"/>
<rect width="1.66476" height="0.969004" rx="0.484502" transform="matrix(0.996478 0.0838493 0.0266847 0.999644 1135.33 140.632)" fill="#FDFCFA"/>
<rect width="2.13822" height="0.878923" rx="0.439462" transform="matrix(0.396592 0.917995 -0.747647 0.664096 1134.1 138.421)" fill="#FDFCFA"/>
<path d="M96.8376 221.884L96.6593 223.089C96.5672 223.711 96.1651 224.244 95.592 224.503L92.9566 225.693C91.6516 226.282 91.484 228.067 92.6566 228.889L94.4045 230.114C94.9268 230.48 95.2234 231.09 95.189 231.726L95.1408 232.621C95.0463 234.375 97.2262 235.255 98.3759 233.927C98.9837 233.224 100.019 233.084 100.792 233.599L101.13 233.824C102.525 234.754 104.338 233.492 103.952 231.86L103.447 229.733C103.317 229.184 103.445 228.607 103.793 228.164L105.005 226.623C105.888 225.501 105.218 223.844 103.804 223.65L102.47 223.468C101.934 223.395 101.456 223.09 101.165 222.633L100.221 221.159C99.3006 219.72 97.0877 220.194 96.8376 221.884Z" fill="#F6E7AF" stroke="#F6E7AF" stroke-width="0.738947"/>
<rect width="1.66476" height="0.969004" rx="0.484502" transform="matrix(0.996478 0.0838493 0.0266847 0.999644 101.333 223.632)" fill="#FDFCFA"/>
<rect width="2.13822" height="0.878923" rx="0.439462" transform="matrix(0.396592 0.917995 -0.747647 0.664096 100.102 221.421)" fill="#FDFCFA"/>
<path d="M1210.84 250.884L1210.66 252.089C1210.57 252.711 1210.17 253.244 1209.59 253.503L1206.96 254.693C1205.65 255.282 1205.48 257.067 1206.66 257.889L1208.4 259.114C1208.93 259.48 1209.22 260.09 1209.19 260.726L1209.14 261.621C1209.05 263.375 1211.23 264.255 1212.38 262.927C1212.98 262.224 1214.02 262.084 1214.79 262.599L1215.13 262.824C1216.53 263.754 1218.34 262.492 1217.95 260.86L1217.45 258.733C1217.32 258.184 1217.44 257.607 1217.79 257.164L1219.01 255.623C1219.89 254.501 1219.22 252.844 1217.8 252.65L1216.47 252.468C1215.93 252.395 1215.46 252.09 1215.16 251.633L1214.22 250.159C1213.3 248.72 1211.09 249.194 1210.84 250.884Z" fill="#F6E7AF" stroke="#F6E7AF" stroke-width="0.738947"/>
<rect width="1.66476" height="0.969004" rx="0.484502" transform="matrix(0.996478 0.0838493 0.0266847 0.999644 1215.33 252.632)" fill="#FDFCFA"/>
<rect width="2.13822" height="0.878923" rx="0.439462" transform="matrix(0.396592 0.917995 -0.747647 0.664096 1214.1 250.421)" fill="#FDFCFA"/>
<path d="M1205.17 775.6L1204.54 778.964C1204.36 779.892 1203.71 780.656 1202.82 780.971L1197.57 782.829C1195.42 783.593 1195.18 786.548 1197.18 787.651L1200.39 789.412C1201.29 789.909 1201.83 790.887 1201.76 791.917L1201.58 794.436C1201.42 796.816 1204.24 798.184 1206.01 796.581L1208.4 794.414C1209.22 793.668 1210.42 793.514 1211.41 794.029L1214.71 795.754C1216.79 796.842 1219.15 794.886 1218.47 792.638L1217.39 789.037C1217.1 788.1 1217.36 787.084 1218.05 786.393L1220.07 784.383C1221.65 782.809 1220.69 780.108 1218.48 779.87L1214.96 779.494C1214.27 779.419 1213.63 779.074 1213.19 778.534L1209.83 774.415C1208.41 772.669 1205.59 773.385 1205.17 775.6Z" fill="#FFDC5C" stroke="#FFDC5C" stroke-width="1.06032"/>
<rect width="4.0716" height="1.41069" rx="0.705346" transform="matrix(0.915547 -0.402211 0.443597 0.896226 1201.71 782.798)" fill="#FFE8C7"/>
<rect width="2.38128" height="1.40091" rx="0.700453" transform="matrix(0.969584 -0.244759 0.273565 0.961854 1198.25 783.758)" fill="#FFE8C7"/>
<rect width="3.35579" height="1.47821" rx="0.739104" transform="matrix(0.183967 -0.982932 0.986481 0.163874 1205.33 780.274)" fill="#FFE8C7"/>
<defs>
<filter id="filter0_f_174_1404" x="65.2876" y="203.477" width="460.162" height="416.463" filterUnits="userSpaceOnUse" color-interpolation-filters="sRGB">
<feFlood flood-opacity="0" result="BackgroundImageFix"/>
<feBlend mode="normal" in="SourceGraphic" in2="BackgroundImageFix" result="shape"/>
<feGaussianBlur stdDeviation="30.0574" result="effect1_foregroundBlur_174_1404"/>
</filter>
<linearGradient id="paint0_linear_174_1404" x1="270.574" y1="468.736" x2="293.77" y2="357.671" gradientUnits="userSpaceOnUse">
<stop offset="0.04" stop-color="#B5B7C9"/>
<stop offset="0.41" stop-color="#545A87"/>
</linearGradient>
<radialGradient id="paint1_radial_174_1404" cx="0" cy="0" r="1" gradientUnits="userSpaceOnUse" gradientTransform="translate(288.174 414.458) rotate(-69.0527) scale(57.4619 73.2761)">
<stop stop-color="#FDEFC5"/>
<stop offset="0.8" stop-color="#3C3952"/>
</radialGradient>
</defs>
</svg>
