<svg width="1280" height="832" viewBox="0 0 1280 832" fill="none" xmlns="http://www.w3.org/2000/svg">
<g clip-path="url(#clip0_174_1006)">
<path d="M-654.5 712.5L90 1240" stroke="white" stroke-width="5"/>
<path d="M1194.98 312.16L1193.74 317.987C1193.65 318.435 1193.32 318.798 1192.88 318.938L1185.04 321.447C1183.96 321.792 1183.83 323.267 1184.84 323.794L1190.54 326.791C1190.99 327.029 1191.26 327.516 1191.22 328.027L1190.76 333.516C1190.66 334.644 1191.97 335.328 1192.85 334.605L1197.97 330.35C1198.36 330.026 1198.91 329.964 1199.36 330.191L1205.69 333.355C1206.7 333.859 1207.81 332.907 1207.48 331.831L1205.57 325.738C1205.42 325.264 1205.56 324.748 1205.93 324.413L1209.89 320.796C1210.7 320.055 1210.26 318.703 1209.17 318.583L1203.07 317.911C1202.74 317.875 1202.45 317.719 1202.24 317.472L1197.2 311.594C1196.51 310.79 1195.2 311.124 1194.98 312.16Z" fill="#F6E7AF" stroke="#F6E7AF" stroke-width="0.510934"/>
<rect width="2.9139" height="1.24467" rx="0.622337" transform="matrix(0.997458 0.071251 0.0266681 0.999644 1202.05 318.209)" fill="#FDFCFA"/>
<rect width="2.92632" height="1.37442" rx="0.687212" transform="matrix(0.499621 0.866244 -0.843505 0.537122 1199.92 315.35)" fill="#FDFCFA"/>
<path d="M1094.82 707.098L1091.78 720.335C1091.67 720.785 1091.33 721.144 1090.89 721.274L1072.42 726.694C1071.3 727.023 1071.18 728.56 1072.23 729.069L1086.33 735.892C1086.8 736.124 1087.09 736.627 1087.04 737.156L1085.87 750.205C1085.77 751.311 1087.03 752.008 1087.92 751.335L1100.83 741.484C1101.21 741.198 1101.71 741.142 1102.14 741.34L1117.81 748.556C1118.83 749.026 1119.91 748.046 1119.55 746.984L1114.83 733.135C1114.66 732.635 1114.81 732.083 1115.22 731.744L1125.21 723.356C1126.07 722.631 1125.64 721.222 1124.52 721.107L1109.61 719.588C1109.3 719.556 1109.02 719.414 1108.81 719.188L1097 706.513C1096.3 705.764 1095.05 706.1 1094.82 707.098Z" fill="#F6E7AF" stroke="#F6E7AF" stroke-width="0.510934"/>
<rect width="5.68959" height="2.23586" rx="1.11793" transform="matrix(0.997798 0.0663256 0.0298482 0.999554 1108.13 720.173)" fill="#FDFCFA"/>
<rect width="5.3784" height="2.62212" rx="1.31106" transform="matrix(0.531655 0.846961 -0.863114 0.505009 1103.96 715.034)" fill="#FDFCFA"/>
<path d="M178.374 702.174L177.931 704.321C177.839 704.768 177.514 705.133 177.08 705.276L173.896 706.325C172.832 706.676 172.703 708.129 173.688 708.662L175.699 709.749C176.145 709.99 176.406 710.471 176.365 710.976L176.225 712.698C176.132 713.834 177.461 714.513 178.327 713.773L180.067 712.287C180.461 711.95 181.02 711.885 181.481 712.122L183.743 713.286C184.746 713.803 185.877 712.859 185.55 711.779L184.877 709.564C184.736 709.099 184.87 708.595 185.224 708.262L186.525 707.04C187.318 706.294 186.875 704.962 185.794 704.84L183.54 704.585C183.213 704.548 182.912 704.386 182.702 704.133L180.607 701.615C179.923 700.792 178.591 701.126 178.374 702.174Z" fill="#F6E7AF" stroke="#F6E7AF" stroke-width="0.510934"/>
<rect width="1.70449" height="0.749361" rx="0.374681" transform="matrix(0.997328 0.0730507 0.0256291 0.999672 182.729 704.74)" fill="#FDFCFA"/>
<rect width="1.74921" height="0.811347" rx="0.405674" transform="matrix(0.488679 0.872464 -0.836277 0.548307 181.482 703.019)" fill="#FDFCFA"/>
<path d="M181.374 314.174L180.931 316.321C180.839 316.768 180.514 317.133 180.08 317.276L176.896 318.325C175.832 318.676 175.703 320.129 176.688 320.662L178.699 321.749C179.145 321.99 179.406 322.471 179.365 322.976L179.225 324.698C179.132 325.834 180.461 326.513 181.327 325.773L183.067 324.287C183.461 323.95 184.02 323.885 184.481 324.122L186.743 325.286C187.746 325.803 188.877 324.859 188.55 323.779L187.877 321.564C187.736 321.099 187.87 320.595 188.224 320.262L189.525 319.04C190.318 318.294 189.875 316.962 188.794 316.84L186.54 316.585C186.213 316.548 185.912 316.386 185.702 316.133L183.607 313.615C182.923 312.792 181.591 313.126 181.374 314.174Z" fill="#F6E7AF" stroke="#F6E7AF" stroke-width="0.510934"/>
<rect width="1.70449" height="0.749361" rx="0.374681" transform="matrix(0.997328 0.0730507 0.0256291 0.999672 185.729 316.74)" fill="#FDFCFA"/>
<rect width="1.74921" height="0.811347" rx="0.405674" transform="matrix(0.488679 0.872464 -0.836277 0.548307 184.482 315.019)" fill="#FDFCFA"/>
<path d="M98.6125 342.072L96.855 351.958C96.7006 352.826 96.1 353.548 95.2747 353.858L82.9173 358.503C80.9479 359.243 80.7202 361.937 82.5376 362.998L91.6511 368.314C92.4684 368.791 92.9461 369.688 92.885 370.632L92.2768 380.025C92.1295 382.3 94.8573 383.567 96.5004 381.986L103.643 375.116C104.433 374.356 105.627 374.2 106.586 374.732L115.695 379.785C117.639 380.863 119.918 379.055 119.309 376.917L116.226 366.088C115.984 365.241 116.207 364.329 116.812 363.689L123.143 356.99C124.557 355.494 123.656 353.025 121.611 352.793L112.268 351.729C111.596 351.653 110.983 351.307 110.571 350.77L103.052 340.987C101.729 339.266 98.9923 339.935 98.6125 342.072Z" fill="#FFDC5C" stroke="#FFDC5C" stroke-width="0.998982"/>
<rect x="92.7349" y="357.12" width="6.24364" height="2.24771" rx="1.12385" transform="rotate(-25 92.7349 357.12)" fill="#FFE8C7"/>
<rect x="87.4902" y="358.667" width="3.62844" height="2.24771" rx="1.12385" transform="rotate(-15 87.4902 358.667)" fill="#FFE8C7"/>
<rect x="98.2295" y="353.053" width="5.39675" height="2.24771" rx="1.12385" transform="rotate(-80 98.2295 353.053)" fill="#FFE8C7"/>
</g>
<defs>
<clipPath id="clip0_174_1006">
<rect width="1280" height="832" fill="white"/>
</clipPath>
</defs>
</svg>
