<svg width="1280" height="832" viewBox="0 0 1280 832" fill="none" xmlns="http://www.w3.org/2000/svg">
<path d="M518.796 409.895C518.796 474.021 647.048 539.483 647.048 539.483C647.048 539.483 775.3 474.021 775.3 409.895" stroke="#FFE8C7" stroke-width="267.191" stroke-linecap="round"/>
<path d="M100.935 423.47L98.8941 434.949C98.7149 435.957 98.0174 436.796 97.0591 437.156L82.7099 442.549C80.423 443.409 80.1586 446.538 82.2689 447.769L92.8514 453.942C93.8005 454.495 94.3552 455.538 94.2842 456.634L93.578 467.54C93.4069 470.182 96.5744 471.653 98.4823 469.818L106.776 461.84C107.694 460.957 109.08 460.776 110.193 461.394L120.771 467.262C123.029 468.514 125.674 466.414 124.967 463.931L121.387 451.357C121.107 450.373 121.366 449.314 122.068 448.571L129.42 440.792C131.061 439.055 130.015 436.189 127.64 435.919L116.792 434.684C116.011 434.595 115.3 434.193 114.821 433.57L106.089 422.21C104.554 420.212 101.376 420.989 100.935 423.47Z" fill="#FFDC5C" stroke="#FFDC5C" stroke-width="1.16"/>
<rect x="94.1099" y="440.944" width="7.25" height="2.61" rx="1.305" transform="rotate(-25 94.1099 440.944)" fill="#FFE8C7"/>
<rect x="88.02" y="442.74" width="4.21328" height="2.61" rx="1.305" transform="rotate(-15 88.02 442.74)" fill="#FFE8C7"/>
<rect x="100.49" y="436.221" width="6.26661" height="2.61" rx="1.305" transform="rotate(-80 100.49 436.221)" fill="#FFE8C7"/>
<path d="M1024.86 645.016L1023.59 652.141C1023.48 652.766 1023.05 653.287 1022.45 653.511L1013.54 656.858C1012.12 657.391 1011.96 659.334 1013.27 660.098L1019.84 663.929C1020.43 664.273 1020.77 664.92 1020.73 665.6L1020.29 672.37C1020.18 674.01 1022.15 674.923 1023.33 673.784L1028.48 668.832C1029.05 668.284 1029.91 668.172 1030.6 668.555L1037.17 672.197C1038.57 672.974 1040.21 671.671 1039.77 670.13L1037.55 662.325C1037.38 661.714 1037.54 661.057 1037.97 660.596L1042.54 655.768C1043.56 654.689 1042.91 652.91 1041.43 652.743L1034.7 651.976C1034.21 651.921 1033.77 651.672 1033.47 651.285L1028.06 644.234C1027.1 642.994 1025.13 643.476 1024.86 645.016Z" fill="#FFDC5C" stroke="#FFDC5C" stroke-width="0.72"/>
<rect x="1020.62" y="655.862" width="4.5" height="1.62" rx="0.81" transform="rotate(-25 1020.62 655.862)" fill="#FFE8C7"/>
<rect x="1016.84" y="656.977" width="2.61514" height="1.62" rx="0.81" transform="rotate(-15 1016.84 656.977)" fill="#FFE8C7"/>
<rect x="1024.58" y="652.931" width="3.88962" height="1.62" rx="0.81" transform="rotate(-80 1024.58 652.931)" fill="#FFE8C7"/>
<path d="M1194.88 427.914L1193.01 438.407C1192.85 439.328 1192.21 440.095 1191.34 440.424L1178.22 445.354C1176.13 446.139 1175.89 448.999 1177.82 450.125L1187.49 455.767C1188.36 456.273 1188.86 457.226 1188.8 458.228L1188.15 468.198C1188 470.612 1190.89 471.957 1192.64 470.279L1200.22 462.987C1201.06 462.18 1202.32 462.015 1203.34 462.579L1213.01 467.943C1215.07 469.087 1217.49 467.168 1216.85 464.899L1213.57 453.405C1213.32 452.505 1213.55 451.538 1214.2 450.858L1220.92 443.748C1222.42 442.16 1221.46 439.54 1219.29 439.293L1209.37 438.164C1208.66 438.083 1208.01 437.716 1207.57 437.146L1199.59 426.762C1198.19 424.936 1195.28 425.646 1194.88 427.914Z" fill="#FFDC5C" stroke="#FFDC5C" stroke-width="1.06032"/>
<rect x="1188.64" y="443.886" width="6.62701" height="2.38572" rx="1.19286" transform="rotate(-25 1188.64 443.886)" fill="#FFE8C7"/>
<rect x="1183.07" y="445.529" width="3.85123" height="2.38572" rx="1.19286" transform="rotate(-15 1183.07 445.529)" fill="#FFE8C7"/>
<rect x="1194.47" y="439.57" width="5.72812" height="2.38572" rx="1.19286" transform="rotate(-80 1194.47 439.57)" fill="#FFE8C7"/>
<path d="M1171.59 702.572L1169.84 712.458C1169.68 713.326 1169.08 714.048 1168.26 714.358L1155.9 719.003C1153.93 719.743 1153.7 722.437 1155.52 723.498L1164.63 728.814C1165.45 729.291 1165.93 730.188 1165.87 731.132L1165.26 740.525C1165.11 742.8 1167.84 744.067 1169.48 742.486L1176.63 735.616C1177.42 734.856 1178.61 734.7 1179.57 735.232L1188.68 740.285C1190.62 741.363 1192.9 739.555 1192.29 737.417L1189.21 726.588C1188.97 725.741 1189.19 724.829 1189.79 724.189L1196.13 717.49C1197.54 715.994 1196.64 713.525 1194.59 713.293L1185.25 712.229C1184.58 712.153 1183.97 711.807 1183.55 711.27L1176.03 701.487C1174.71 699.766 1171.97 700.435 1171.59 702.572Z" fill="#FFDC5C" stroke="#FFDC5C" stroke-width="0.998982"/>
<rect x="1165.72" y="717.62" width="6.24364" height="2.24771" rx="1.12385" transform="rotate(-25 1165.72 717.62)" fill="#FFE8C7"/>
<rect x="1160.47" y="719.167" width="3.62844" height="2.24771" rx="1.12385" transform="rotate(-15 1160.47 719.167)" fill="#FFE8C7"/>
<rect x="1171.21" y="713.553" width="5.39675" height="2.24771" rx="1.12385" transform="rotate(-80 1171.21 713.553)" fill="#FFE8C7"/>
<path d="M263.793 542.458L262.702 548.593C262.606 549.132 262.233 549.581 261.721 549.773L254.052 552.655C252.83 553.115 252.688 554.787 253.816 555.445L259.472 558.745C259.98 559.041 260.276 559.598 260.238 560.184L259.861 566.013C259.769 567.425 261.462 568.211 262.482 567.23L266.915 562.966C267.405 562.494 268.146 562.398 268.741 562.728L274.395 565.864C275.602 566.533 277.015 565.411 276.638 564.084L274.724 557.363C274.574 556.837 274.713 556.271 275.088 555.874L279.017 551.716C279.895 550.788 279.335 549.256 278.066 549.112L272.268 548.452C271.851 548.404 271.47 548.189 271.214 547.856L266.548 541.785C265.727 540.717 264.029 541.132 263.793 542.458Z" fill="#FFDC5C" stroke="#FFDC5C" stroke-width="0.62"/>
<rect x="260.145" y="551.798" width="3.875" height="1.395" rx="0.6975" transform="rotate(-25 260.145 551.798)" fill="#FFE8C7"/>
<rect x="256.89" y="552.758" width="2.25193" height="1.395" rx="0.6975" transform="rotate(-15 256.89 552.758)" fill="#FFE8C7"/>
<rect x="263.555" y="549.274" width="3.3494" height="1.395" rx="0.6975" transform="rotate(-80 263.555 549.274)" fill="#FFE8C7"/>
<path d="M264.789 301.835L264.211 305.091C264.16 305.377 263.962 305.615 263.69 305.718L259.62 307.247C258.971 307.491 258.896 308.379 259.495 308.728L262.496 310.479C262.766 310.636 262.923 310.932 262.903 311.243L262.703 314.336C262.654 315.086 263.553 315.503 264.094 314.982L266.446 312.719C266.707 312.469 267.1 312.418 267.416 312.593L270.416 314.257C271.057 314.613 271.807 314.017 271.606 313.313L270.591 309.746C270.511 309.467 270.585 309.166 270.784 308.955L272.869 306.749C273.335 306.256 273.038 305.443 272.365 305.367L269.287 305.016C269.066 304.991 268.864 304.877 268.728 304.7L266.252 301.478C265.816 300.911 264.915 301.131 264.789 301.835Z" fill="#FFDC5C" stroke="#FFDC5C" stroke-width="0.329049"/>
<rect x="262.853" y="306.792" width="2.05656" height="0.74036" rx="0.37018" transform="rotate(-25 262.853 306.792)" fill="#FFE8C7"/>
<rect x="261.126" y="307.302" width="1.19515" height="0.74036" rx="0.37018" transform="rotate(-15 261.126 307.302)" fill="#FFE8C7"/>
<rect x="264.663" y="305.452" width="1.7776" height="0.74036" rx="0.37018" transform="rotate(-80 264.663 305.452)" fill="#FFE8C7"/>
<path d="M138.251 710.663L136.78 718.936C136.651 719.663 136.148 720.267 135.457 720.527L125.115 724.414C123.467 725.033 123.277 727.289 124.797 728.176L132.425 732.625C133.109 733.024 133.508 733.775 133.457 734.565L132.948 742.426C132.825 744.33 135.108 745.39 136.483 744.068L142.461 738.318C143.122 737.681 144.121 737.551 144.923 737.996L152.547 742.225C154.174 743.128 156.081 741.614 155.571 739.825L152.991 730.762C152.789 730.053 152.976 729.29 153.482 728.754L158.78 723.148C159.964 721.896 159.209 719.83 157.498 719.635L149.679 718.745C149.116 718.681 148.604 718.392 148.258 717.942L141.966 709.755C140.859 708.315 138.569 708.875 138.251 710.663Z" fill="#FFDC5C" stroke="#FFDC5C" stroke-width="0.836049"/>
<rect x="133.332" y="723.257" width="5.22531" height="1.88111" rx="0.940555" transform="rotate(-25 133.332 723.257)" fill="#FFE8C7"/>
<rect x="128.943" y="724.552" width="3.03664" height="1.88111" rx="0.940555" transform="rotate(-15 128.943 724.552)" fill="#FFE8C7"/>
<rect x="137.93" y="719.854" width="4.51655" height="1.88111" rx="0.940555" transform="rotate(-80 137.93 719.854)" fill="#FFE8C7"/>
<path d="M843.118 405.372C825.319 418.66 797.823 391.526 772.114 368.819C747.026 342.017 749.003 319.526 766.801 306.238C784.6 292.95 809.513 310.517 831.256 334.359C853 358.202 860.916 392.083 843.118 405.372Z" fill="#D9D9D9"/>
<ellipse cx="13.9729" cy="29.6394" rx="13.9729" ry="29.6394" transform="matrix(0.859852 0.510544 -0.587121 0.809499 712.449 578.777)" fill="#D9D9D9"/>
<ellipse cx="12.8439" cy="27.2446" rx="12.8439" ry="27.2446" transform="matrix(0.859852 0.510544 -0.587121 0.809499 488.085 370.601)" fill="#D9D9D9"/>
<ellipse cx="12.4675" cy="17.1032" rx="12.4675" ry="17.1032" transform="matrix(0.987273 -0.159032 0.100568 0.99493 541.37 576.054)" fill="#D9D9D9"/>
</svg>
