<svg width="205" height="148" viewBox="0 0 205 148" fill="none" xmlns="http://www.w3.org/2000/svg">
<g filter="url(#filter0_f_145_421)">
<path d="M74.3158 65.6842C74.3158 78.2897 99.5269 91.1579 99.5269 91.1579C99.5269 91.1579 124.738 78.2897 124.738 65.6842" stroke="#F6CABC" stroke-width="52.5231" stroke-linecap="round"/>
</g>
<path d="M74.3158 65.6842C74.3158 78.2897 99.5269 91.1579 99.5269 91.1579C99.5269 91.1579 124.738 78.2897 124.738 65.6842" stroke="#F9DDB5" stroke-width="52.5231" stroke-linecap="round"/>
<path d="M150.938 79.9313C150.009 79.6665 149.056 79.4018 148.081 79.1423C148.05 79.599 147.996 80.0454 147.942 80.497C157.038 82.9626 162.279 85.3139 161.776 87.0787C161.265 88.8799 154.87 89.7623 144.729 89.7623C132.52 89.7623 114.877 88.4854 95.5001 85.9939C74.6985 83.3155 56.529 79.8326 45.2805 76.6041C37.3531 74.3306 32.863 72.1868 33.3352 70.5466C33.792 68.9375 38.9324 68.0655 47.2313 67.8942C47.2623 67.8215 47.2855 67.754 47.3165 67.6866C47.4326 67.4166 47.5565 67.1519 47.6804 66.8872C35.0383 67.1831 27.4361 68.7195 26.7471 71.1331C26.0271 73.6558 32.8165 77.1491 45.3811 80.7202C45.4198 80.7306 45.4663 80.741 45.505 80.7566C58.4953 84.4367 76.1771 87.821 95.3143 90.2865C112.299 92.4718 128.619 93.702 141.942 93.811C143.676 93.8266 145.356 93.8214 146.974 93.8006C160.615 93.6034 168.859 92.041 169.579 89.5235C170.299 86.9957 163.51 83.5024 150.938 79.9313Z" fill="url(#paint0_linear_145_421)"/>
<path d="M148.151 77.2737V77.3723C148.151 77.6785 148.143 77.9796 148.135 78.2858C149.258 78.5817 150.357 78.8828 151.418 79.189C160.847 81.8674 171.863 85.8642 170.772 89.6741C169.68 93.484 157.239 94.4598 147.005 94.6104C145.999 94.6259 144.969 94.6311 143.916 94.6311C143.049 94.6311 142.166 94.6259 141.268 94.6155C127.999 94.465 111.858 93.24 95.0822 91.0807C76.1695 88.6463 58.6658 85.314 45.6599 81.6805C45.4044 81.6078 45.1567 81.5404 44.909 81.4677C35.4797 78.7893 24.4634 74.7925 25.555 70.9826C26.6001 67.3232 38.1041 66.2799 48.0907 66.0671C48.2998 65.657 48.5243 65.247 48.7643 64.8421C31.8102 65.0653 20.5462 67.1571 19.4546 70.9619C18.2934 75.0209 28.9458 80.1337 46.4573 84.7897C59.1148 88.1532 75.3643 91.278 93.3248 93.593C110.093 95.7523 125.87 96.8787 138.977 97.0344C159.314 97.2732 173.226 95.1658 174.441 90.9146C175.579 86.9075 165.236 81.8778 148.151 77.2737Z" fill="url(#paint1_radial_145_421)"/>
<path d="M32.3448 39.3779C32.6771 39.257 32.9866 39.1766 33.2732 39.1368C33.5659 39.084 33.8227 39.0658 34.0438 39.0822C34.2743 39.095 34.4625 39.1395 34.6084 39.2154C34.7863 39.2904 34.9284 39.4 35.0346 39.5442C35.1469 39.6754 35.2566 39.8882 35.3637 40.1825C35.4432 40.401 35.4985 40.612 35.5297 40.8158C35.5669 41.0066 35.5838 41.2155 35.5804 41.4425L35.4949 41.4737C35.0131 41.2726 34.5883 41.1692 34.2205 41.1632C33.8493 41.1478 33.4262 41.2265 32.9515 41.3993C32.5146 41.5583 32.1681 41.8027 31.9118 42.1326C31.6554 42.4625 31.4997 42.8471 31.4446 43.2866C31.3955 43.7131 31.4574 44.1637 31.6302 44.6385L31.682 44.781C31.7615 44.9994 31.8665 45.2139 31.9969 45.4245C32.1368 45.6317 32.3178 45.8185 32.5397 45.9851C32.7987 45.9876 33.0586 45.9629 33.3193 45.9111C33.5895 45.8557 33.8813 45.771 34.1946 45.657C34.603 45.5084 34.9534 45.3485 35.2461 45.1775C35.5447 44.9935 35.8045 44.7914 36.0255 44.5712C36.2525 44.338 36.4566 44.0863 36.6378 43.816L36.7233 43.7849C36.7768 43.873 36.8256 43.9627 36.8697 44.0542C36.9137 44.1457 36.9617 44.2627 37.0135 44.4051C37.1207 44.6995 37.1747 44.981 37.1757 45.2495C37.1827 45.505 37.1318 45.7493 37.0231 45.9825C36.942 46.1733 36.8095 46.3559 36.6257 46.5304C36.4418 46.7048 36.2083 46.8759 35.9252 47.0434C35.6421 47.211 35.2916 47.3708 34.8738 47.5229C34.3895 47.6992 33.8801 47.777 33.3457 47.7565C32.8208 47.7324 32.3127 47.6216 31.8214 47.4241C31.3301 47.2265 30.894 46.9443 30.5131 46.5775C30.1418 46.2073 29.8645 45.7705 29.6814 45.2672L29.6243 45.1105C29.3167 44.2654 29.2293 43.4638 29.362 42.7057C29.4948 41.9477 29.817 41.2819 30.3288 40.7085C30.8372 40.1256 31.5091 39.6821 32.3448 39.3779Z" fill="#E6E5E5"/>
<path d="M41.3012 32.7042C41.8039 32.6536 42.2861 32.7015 42.7477 32.8479C43.2184 32.9833 43.6434 33.2198 44.0227 33.5573C44.4121 33.8939 44.7357 34.3335 44.9936 34.8763C45.2504 35.409 45.4168 36.0524 45.4928 36.8065L45.5125 37.0026C45.5885 37.7566 45.4895 38.4369 45.2155 39.0435C44.9515 39.649 44.5492 40.1415 44.0085 40.521C43.4668 40.8904 42.8139 41.1137 42.0498 41.1907C41.537 41.2423 41.0468 41.2156 40.5792 41.1104C40.1206 40.9941 39.7046 40.7973 39.3314 40.5201C38.9581 40.2428 38.6466 39.8731 38.3969 39.4107C38.1572 38.9474 38.005 38.3939 37.9401 37.7505L37.9204 37.5544C37.8302 36.6596 37.9125 35.8641 38.1674 35.1681C38.4313 34.4611 38.831 33.8926 39.3666 33.4629C39.9022 33.0331 40.5471 32.7802 41.3012 32.7042ZM41.7506 34.5937C41.278 34.6414 40.896 34.7814 40.6046 35.0139C40.3122 35.2364 40.1058 35.5568 39.9855 35.9752C39.8742 36.3825 39.8494 36.8928 39.9112 37.5061L39.9219 37.6117C39.9553 37.9435 40.0119 38.2526 40.0915 38.5391C40.1712 38.8256 40.2785 39.084 40.4134 39.3141C40.5883 39.3371 40.7623 39.3501 40.9353 39.353C41.1072 39.3458 41.3138 39.33 41.5551 39.3057C42.0478 39.2561 42.4429 39.1452 42.7404 38.973C43.0479 38.7998 43.2669 38.5543 43.3974 38.2364C43.5269 37.9085 43.5683 37.5133 43.5217 37.0508L43.511 36.9453C43.4624 36.4627 43.3831 36.0289 43.2732 35.6438C43.1633 35.2588 43.0168 34.913 42.8335 34.6065C42.6877 34.5704 42.5288 34.5559 42.3569 34.5631C42.194 34.5592 41.9919 34.5694 41.7506 34.5937Z" fill="#E6E5E5"/>
<path d="M50.3186 31.9141C50.6968 31.8474 51.0249 31.7588 51.303 31.6482C51.5811 31.5376 51.8068 31.4208 51.98 31.2979C51.9888 31.1732 51.957 31.0506 51.8844 30.93C51.8101 30.7994 51.6886 30.6926 51.52 30.6095C51.3515 30.5263 51.1176 30.4803 50.8185 30.4715L49.0632 30.3808C48.4831 30.3497 48.0049 30.2852 47.6285 30.1874C47.2603 30.0779 46.9755 29.9178 46.7742 29.707C46.581 29.4845 46.4529 29.1942 46.3897 28.8359C46.3125 28.398 46.3594 27.9947 46.5304 27.6259C46.7095 27.2455 46.978 26.9057 47.3357 26.6066C47.6934 26.3075 48.1155 26.0535 48.602 25.8446C49.0885 25.6357 49.6004 25.4839 50.1378 25.3891C50.4961 25.3259 50.7972 25.2882 51.0413 25.276C51.2936 25.252 51.5047 25.2558 51.6744 25.2875C51.8424 25.3092 51.9741 25.3578 52.0695 25.4333C52.1948 25.5035 52.3005 25.6081 52.3865 25.7468C52.4708 25.8756 52.5454 26.0369 52.6103 26.2307C52.6852 26.4227 52.7446 26.6431 52.7885 26.8919C52.806 26.9914 52.8177 27.0868 52.8236 27.1781C52.8277 27.2595 52.8276 27.3467 52.8235 27.4398L52.734 27.4556C52.5273 27.3894 52.3143 27.3449 52.0947 27.322C51.8852 27.2974 51.6534 27.2921 51.3993 27.3061C51.1535 27.3084 50.8564 27.3403 50.5081 27.4017C50.0105 27.4894 49.6036 27.5971 49.2875 27.7247C48.9696 27.8423 48.7357 27.9707 48.5859 28.11C48.4459 28.2476 48.39 28.396 48.4181 28.5552C48.4356 28.6547 48.4863 28.7381 48.57 28.8055C48.6537 28.8728 48.7912 28.9255 48.9826 28.9636C49.184 28.9999 49.465 29.0222 49.8256 29.0304L51.2814 29.0816C51.8264 29.0881 52.2806 29.1619 52.6441 29.303C53.0076 29.4442 53.2828 29.6368 53.4695 29.8809C53.6644 30.1133 53.7908 30.3938 53.8487 30.7222C53.9522 31.3093 53.9038 31.8206 53.7036 32.2561C53.5016 32.6817 53.1386 33.0381 52.6146 33.3255C52.0889 33.6029 51.3882 33.8188 50.5124 33.9732C50.0845 34.0487 49.6978 34.0963 49.3525 34.1162C49.0188 34.1442 48.7173 34.1512 48.448 34.1371C48.1887 34.1213 47.9674 34.0885 47.7842 34.0387C47.601 33.9889 47.4635 33.9362 47.3716 33.8806C47.2042 33.7459 47.0564 33.577 46.9282 33.3739C46.81 33.169 46.7149 32.8625 46.643 32.4545C46.6166 32.3052 46.5979 32.17 46.5868 32.0488C46.5857 31.9259 46.5871 31.8179 46.5912 31.7248L46.6808 31.709C46.9659 31.8127 47.2275 31.8999 47.4658 31.9708C47.7122 32.0299 47.966 32.0724 48.227 32.0982C48.4864 32.114 48.7829 32.1079 49.1165 32.0799C49.4602 32.0501 49.8609 31.9948 50.3186 31.9141Z" fill="#E6E5E5"/>
<path d="M65.7369 30.0325C65.6472 30.0579 65.5624 30.0779 65.4822 30.0926C65.4021 30.1073 65.3166 30.1172 65.2258 30.1224C65.1457 30.1371 65.0552 30.1473 64.9543 30.1531C64.581 30.1744 64.2752 30.1362 64.0368 30.0385C63.7984 29.9408 63.6204 29.7485 63.5028 29.4617C63.3852 29.1749 63.3112 28.7641 63.2806 28.2294C63.2668 27.9873 63.258 27.7448 63.2543 27.5021C63.25 27.2493 63.2454 26.9915 63.2405 26.7286C63.2356 26.4657 63.2405 26.1972 63.2552 25.9231C63.2693 25.6389 63.2829 25.3446 63.2959 25.0402C63.3089 24.7358 63.3314 24.4207 63.3634 24.095C63.3201 24.0469 63.2677 24.0144 63.206 23.9977C63.1437 23.9709 63.0773 23.9595 63.0067 23.9636C62.815 23.9745 62.6371 24.0504 62.4731 24.1914C62.3085 24.3223 62.1625 24.5128 62.0351 24.763C61.9071 25.0031 61.8021 25.2925 61.7203 25.6312L61.6019 23.5579L61.844 23.5441C61.9775 23.2227 62.1331 22.9355 62.311 22.6824C62.4889 22.4293 62.6797 22.2261 62.8835 22.0728C63.0968 21.9088 63.3094 21.8207 63.5213 21.8086C63.7029 21.7982 63.8781 21.854 64.047 21.976C64.2254 22.0872 64.3908 22.2347 64.5429 22.4183C64.6946 22.5918 64.8168 22.7822 64.9096 22.9895C65.0125 23.1962 65.0688 23.3853 65.0786 23.5568C65.0988 23.9099 65.1189 24.263 65.1391 24.6161C65.1587 24.9591 65.1783 25.3021 65.1979 25.6452C65.2175 25.9882 65.2371 26.3312 65.2566 26.6742C65.2762 27.0172 65.2961 27.3653 65.3163 27.7184C65.3428 28.1825 65.3857 28.5798 65.4451 28.9105C65.5044 29.2411 65.6017 29.6151 65.7369 30.0325ZM62.1352 30.2382C62.1156 30.2494 62.0906 30.2559 62.0604 30.2576C62.0307 30.2695 62.0007 30.2762 61.9704 30.278C61.9408 30.2898 61.9057 30.2968 61.8654 30.2991C61.6232 30.313 61.4186 30.274 61.2514 30.1824C61.0836 30.0806 60.9531 29.9211 60.8597 29.7037C60.7764 29.4858 60.7244 29.1952 60.7036 28.832C60.6892 28.5798 60.6748 28.3276 60.6604 28.0754C60.6555 27.8125 60.6504 27.5446 60.6449 27.2716C60.6489 26.9879 60.6524 26.6942 60.6553 26.3904C60.6582 26.0866 60.665 25.7623 60.6757 25.4176C60.6964 25.0722 60.7107 24.702 60.7185 24.3068C60.6854 24.2581 60.6477 24.2197 60.6057 24.1918C60.5737 24.1632 60.5372 24.1451 60.4963 24.1373C60.4548 24.1194 60.4037 24.1122 60.3432 24.1157C60.1919 24.1243 60.044 24.1935 59.8996 24.3232C59.7652 24.4523 59.6341 24.6369 59.5061 24.877C59.3781 25.1171 59.2541 25.4279 59.1342 25.8092L58.9696 23.7234L59.2117 23.7096C59.3036 23.3703 59.4187 23.0804 59.5568 22.8397C59.7043 22.5883 59.8652 22.3919 60.0393 22.2504C60.2128 22.0988 60.3955 22.0175 60.5871 22.0065C60.7587 21.9967 60.9134 22.0486 61.0515 22.1622C61.1896 22.2758 61.3095 22.4258 61.4112 22.6123C61.5124 22.7887 61.5934 22.9663 61.6542 23.145C61.715 23.3237 61.7495 23.4837 61.7575 23.625C61.7892 24.1798 61.8209 24.7347 61.8526 25.2896C61.8938 25.8338 61.9302 26.3834 61.9619 26.9383C61.993 27.4831 62.0194 28.0332 62.041 28.5887C62.0721 29.1335 62.1035 29.6833 62.1352 30.2382ZM59.5331 30.402C59.4833 30.4149 59.4283 30.4282 59.3684 30.4417C59.3084 30.4553 59.2482 30.4638 59.1877 30.4672C59.1277 30.4808 59.0624 30.4896 58.9918 30.4936C58.9217 30.5077 58.8464 30.5171 58.7657 30.5217C58.574 30.5326 58.4069 30.5321 58.2645 30.5199C58.1221 30.5078 57.9988 30.4744 57.8944 30.4196C57.8002 30.3643 57.7246 30.2826 57.6679 30.1745C57.6111 30.0664 57.5775 29.9215 57.5671 29.7399C57.5297 29.0841 57.4925 28.4334 57.4556 27.7877C57.4182 27.132 57.381 26.4812 57.3442 25.8355C57.3067 25.1798 57.2696 24.529 57.2327 23.8834C57.2154 23.5807 57.185 23.3142 57.1415 23.0839C57.1075 22.8429 57.0477 22.5933 56.9621 22.335C57.0019 22.3226 57.0467 22.3099 57.0965 22.297C57.1464 22.284 57.1915 22.2763 57.2319 22.274C57.2817 22.2611 57.3319 22.2531 57.3823 22.2503C57.4328 22.2474 57.4832 22.2445 57.5337 22.2416C57.7355 22.2301 57.9295 22.2595 58.1157 22.3299C58.3019 22.4002 58.4702 22.512 58.6207 22.6654C58.7806 22.8081 58.9079 22.9982 59.0024 23.2357C59.097 23.4732 59.1537 23.7585 59.1728 24.0914C59.2125 24.7875 59.2526 25.4887 59.2929 26.1949C59.3332 26.9011 59.3732 27.6023 59.413 28.2984C59.4528 28.9946 59.4928 29.6957 59.5331 30.402Z" fill="#E6E5E5"/>
<path d="M71.6706 29.3072L71.7828 29.0455C71.625 28.869 71.5009 28.6458 71.4106 28.3759C71.3303 28.1057 71.2835 27.7787 71.2701 27.395C71.2631 27.193 71.2564 27.0011 71.25 26.8193C71.2433 26.6274 71.2366 26.4356 71.2299 26.2437C71.2229 26.0417 71.2162 25.8498 71.2098 25.668C71.2031 25.4762 71.1964 25.2843 71.1897 25.0924C71.183 24.9005 71.1765 24.7137 71.1702 24.5319L71.1074 24.4734C70.7603 24.6675 70.4522 24.8199 70.183 24.9304C69.924 25.0405 69.7043 25.119 69.5239 25.1657C69.3435 25.2125 69.1927 25.238 69.0716 25.2422C68.9201 25.2475 68.7773 25.212 68.6432 25.1358C68.5087 25.0495 68.4029 24.9167 68.3259 24.7374C68.2485 24.548 68.2045 24.3018 68.1939 23.9988C68.1887 23.8473 68.1935 23.6955 68.2084 23.5433C68.2233 23.3911 68.249 23.2587 68.2855 23.1462C68.5369 23.1071 68.834 23.0715 69.1766 23.0393C69.5294 23.0067 69.8773 22.9794 70.2203 22.9573C70.5731 22.9248 70.8706 22.9043 71.113 22.8958C71.5877 22.8793 71.973 22.9113 72.2691 22.992C72.5749 23.0622 72.8022 23.2009 72.951 23.408C73.1099 23.6148 73.1964 23.9202 73.2105 24.3241C73.2228 24.6776 73.235 25.026 73.247 25.3694C73.2586 25.7027 73.2706 26.046 73.2829 26.3995C73.2949 26.7429 73.3071 27.0913 73.3194 27.4448C73.3318 27.7982 73.3439 28.1466 73.3559 28.49C73.3679 28.8334 73.3801 29.1818 73.3924 29.5353L71.6706 29.3072ZM68.4078 29.2543L72.9221 29.0967C73.6694 29.0706 74.2624 29.1105 74.7009 29.2166C75.1494 29.3222 75.4786 29.4826 75.6884 29.6978C75.8981 29.9129 76.0081 30.1669 76.0183 30.4598C76.0208 30.5305 76.018 30.5963 76.01 30.6572C76.0121 30.7178 76.0043 30.7838 75.9866 30.8552C75.9786 30.9162 75.9656 30.9773 75.9475 31.0386L69.888 31.2502C69.4942 31.264 69.1896 31.2291 68.9744 31.1456C68.7591 31.0621 68.6074 30.9157 68.5192 30.7065C68.431 30.4972 68.3805 30.2108 68.3678 29.8472C68.365 29.7664 68.3626 29.6958 68.3604 29.6352C68.3681 29.5641 68.3759 29.4981 68.3839 29.4372C68.3918 29.3762 68.3998 29.3153 68.4078 29.2543ZM70.6107 19.8041C70.6904 19.771 70.7853 19.7373 70.8954 19.7032C71.0054 19.669 71.1156 19.6399 71.226 19.6158C71.3465 19.5914 71.4671 19.572 71.588 19.5576C71.7189 19.543 71.845 19.5335 71.9662 19.5293C72.4105 19.5138 72.7767 19.5768 73.0648 19.7184C73.3525 19.8499 73.5031 20.1076 73.5165 20.4913L73.553 21.5366C73.4732 21.5697 73.3834 21.6032 73.2835 21.637C73.1936 21.6705 73.0935 21.6992 72.9831 21.7233C72.8828 21.747 72.7773 21.7659 72.6666 21.7799C72.566 21.7935 72.4601 21.8023 72.349 21.8061C71.8642 21.8231 71.4615 21.7259 71.1406 21.5147C70.8198 21.3034 70.653 21.016 70.6403 20.6524L70.6107 19.8041Z" fill="#E6E5E5"/>
<path d="M83.9625 23.4772C84.3127 23.5264 84.6237 23.6007 84.8955 23.7002C85.1787 23.791 85.414 23.8955 85.6015 24.0137C85.799 24.1333 85.9443 24.2608 86.0375 24.3964C86.1593 24.5462 86.2333 24.7096 86.2594 24.8868C86.297 25.0553 86.2939 25.2947 86.2503 25.6049C86.218 25.8351 86.1677 26.0474 86.0996 26.2419C86.0428 26.4279 85.9597 26.6203 85.8501 26.8192L85.76 26.8065C85.429 26.4028 85.1025 26.112 84.7805 25.9341C84.46 25.7462 84.0495 25.6171 83.5492 25.5468C83.0889 25.4821 82.6681 25.5352 82.2869 25.7061C81.9058 25.877 81.5877 26.1436 81.3327 26.5057C81.0891 26.8593 80.9322 27.2862 80.8618 27.7866L80.8407 27.9367C80.8084 28.1668 80.8004 28.4055 80.8166 28.6527C80.8429 28.9013 80.915 29.1512 81.0327 29.4025C81.2602 29.5263 81.5013 29.6265 81.7558 29.7031C82.0204 29.7811 82.3178 29.8433 82.648 29.8897C83.0783 29.9502 83.4628 29.9736 83.8014 29.96C84.1515 29.9377 84.4758 29.8813 84.7743 29.7906C85.0842 29.6913 85.3826 29.5648 85.6695 29.4112L85.7595 29.4239C85.7655 29.5268 85.7664 29.629 85.7624 29.7304C85.7583 29.8319 85.7457 29.9577 85.7246 30.1078C85.681 30.418 85.5966 30.6919 85.4714 30.9294C85.3576 31.1583 85.198 31.3502 84.9925 31.505C84.8313 31.6354 84.6286 31.7345 84.3844 31.8022C84.1402 31.8699 83.8537 31.9113 83.5251 31.9263C83.1964 31.9414 82.8119 31.918 82.3716 31.8561C81.8613 31.7843 81.375 31.614 80.9128 31.3449C80.4606 31.0773 80.064 30.7409 79.7229 30.3358C79.3819 29.9307 79.1293 29.4768 78.9653 28.9742C78.8112 28.4729 78.7714 27.9571 78.846 27.4267L78.8692 27.2616C78.9944 26.371 79.2935 25.6222 79.7666 25.0152C80.2397 24.4081 80.8367 23.9716 81.5578 23.7056C82.2803 23.4296 83.0819 23.3534 83.9625 23.4772Z" fill="#E6E5E5"/>
<path d="M95.4961 131.885C95.8484 131.854 96.1682 131.857 96.4553 131.892C96.7517 131.917 97.0045 131.966 97.2138 132.039C97.4331 132.111 97.6034 132.203 97.7247 132.314C97.8771 132.432 97.9859 132.575 98.0512 132.742C98.1257 132.898 98.1766 133.131 98.2039 133.444C98.2242 133.675 98.223 133.893 98.2003 134.098C98.1869 134.292 98.1491 134.498 98.0871 134.717L97.9965 134.725C97.5831 134.406 97.1996 134.196 96.8459 134.095C96.4913 133.984 96.0623 133.95 95.5589 133.994C95.0959 134.035 94.6978 134.181 94.3649 134.434C94.0319 134.686 93.7819 135.017 93.615 135.427C93.4572 135.827 93.4003 136.278 93.4443 136.781L93.4575 136.932C93.4778 137.164 93.5236 137.398 93.5951 137.635C93.6767 137.872 93.8031 138.099 93.9743 138.317C94.2238 138.387 94.4812 138.43 94.7465 138.448C95.0218 138.464 95.3256 138.458 95.6578 138.429C96.0907 138.391 96.4706 138.327 96.7975 138.238C97.1336 138.137 97.4369 138.009 97.7073 137.854C97.9869 137.687 98.2492 137.497 98.4942 137.283L98.5848 137.275C98.6137 137.374 98.6376 137.473 98.6565 137.573C98.6754 137.673 98.6914 137.798 98.7046 137.949C98.7319 138.261 98.7113 138.547 98.6427 138.807C98.5833 139.055 98.471 139.278 98.3056 139.475C98.1779 139.639 98.0027 139.781 97.7799 139.902C97.5572 140.023 97.2874 140.127 96.9706 140.216C96.6537 140.305 96.2738 140.368 95.8309 140.407C95.3175 140.452 94.8053 140.395 94.2944 140.237C93.7936 140.078 93.3315 139.839 92.908 139.521C92.4846 139.204 92.1364 138.818 91.8635 138.365C91.6006 137.911 91.4459 137.418 91.3992 136.884L91.3846 136.718C91.3063 135.822 91.4293 135.025 91.7537 134.327C92.0781 133.63 92.5617 133.07 93.2045 132.648C93.8463 132.217 94.6102 131.962 95.4961 131.885Z" fill="#D9D9D9"/>
<path d="M104.085 129.589C104.579 129.483 105.063 129.479 105.538 129.574C106.021 129.657 106.469 129.846 106.883 130.14C107.307 130.433 107.676 130.835 107.991 131.346C108.305 131.848 108.54 132.469 108.698 133.21L108.739 133.403C108.896 134.145 108.872 134.832 108.665 135.464C108.469 136.095 108.122 136.628 107.626 137.064C107.128 137.491 106.503 137.783 105.752 137.943C105.248 138.05 104.758 138.077 104.281 138.023C103.813 137.958 103.378 137.807 102.977 137.572C102.576 137.337 102.226 137.004 101.927 136.571C101.639 136.137 101.427 135.603 101.292 134.97L101.252 134.778C101.065 133.898 101.06 133.098 101.237 132.379C101.423 131.647 101.758 131.039 102.244 130.553C102.73 130.068 103.343 129.746 104.085 129.589ZM104.737 131.418C104.272 131.517 103.908 131.697 103.643 131.96C103.377 132.213 103.207 132.554 103.133 132.983C103.066 133.4 103.097 133.91 103.225 134.513L103.247 134.617C103.317 134.943 103.407 135.244 103.517 135.52C103.627 135.797 103.762 136.042 103.921 136.256C104.098 136.26 104.272 136.254 104.444 136.238C104.614 136.212 104.818 136.174 105.055 136.123C105.54 136.02 105.92 135.867 106.197 135.664C106.484 135.458 106.675 135.19 106.77 134.86C106.863 134.52 106.861 134.122 106.765 133.668L106.743 133.564C106.642 133.09 106.516 132.667 106.365 132.296C106.214 131.925 106.03 131.598 105.815 131.313C105.666 131.293 105.506 131.296 105.336 131.322C105.174 131.335 104.974 131.368 104.737 131.418Z" fill="#D9D9D9"/>
<path d="M119.699 132.798C119.579 132.879 119.465 132.947 119.357 133.002C119.248 133.057 119.128 133.111 118.997 133.164C118.641 133.307 118.315 133.379 118.021 133.378C117.736 133.373 117.472 133.262 117.232 133.043C116.996 132.811 116.778 132.447 116.578 131.95C116.43 131.585 116.301 131.212 116.191 130.831C116.077 130.442 115.97 130.043 115.871 129.636C115.778 129.216 115.682 128.776 115.583 128.314C115.462 128.232 115.344 128.182 115.227 128.164C115.12 128.141 115.011 128.153 114.898 128.198C114.673 128.289 114.473 128.441 114.297 128.654C114.131 128.863 113.995 129.146 113.889 129.505C113.793 129.86 113.733 130.304 113.708 130.837C113.693 131.366 113.726 132.002 113.808 132.742L112.519 129.552L112.884 129.405C112.882 128.86 112.953 128.347 113.096 127.864C113.238 127.381 113.449 126.958 113.727 126.595C114.006 126.232 114.337 125.973 114.721 125.818C114.946 125.727 115.18 125.714 115.425 125.779C115.665 125.834 115.901 125.946 116.132 126.114C116.364 126.282 116.576 126.485 116.771 126.723C116.965 126.96 117.117 127.215 117.226 127.487C117.37 127.843 117.516 128.203 117.664 128.569C117.811 128.934 117.959 129.3 118.106 129.665C118.25 130.021 118.396 130.382 118.544 130.747C118.718 131.178 118.886 131.541 119.048 131.835C119.211 132.129 119.428 132.45 119.699 132.798ZM114.941 134.737C114.879 134.773 114.815 134.804 114.749 134.831C114.697 134.863 114.643 134.89 114.587 134.913C114.53 134.935 114.469 134.96 114.404 134.987C114.151 135.089 113.926 135.152 113.729 135.178C113.528 135.193 113.355 135.17 113.211 135.109C113.066 135.048 112.942 134.956 112.838 134.834C112.744 134.709 112.661 134.557 112.589 134.379C112.4 133.911 112.218 133.461 112.044 133.03C111.866 132.59 111.694 132.163 111.527 131.751C111.357 131.33 111.19 130.917 111.027 130.514C110.861 130.102 110.696 129.695 110.533 129.292C110.431 129.039 110.312 128.798 110.176 128.569C110.04 128.341 109.887 128.163 109.716 128.036C109.783 127.987 109.843 127.947 109.895 127.915C109.957 127.879 110.019 127.843 110.081 127.807C110.143 127.771 110.202 127.742 110.258 127.719C110.567 127.594 110.872 127.553 111.172 127.595C111.469 127.628 111.749 127.782 112.013 128.056C112.276 128.331 112.527 128.764 112.766 129.354C113.012 129.963 113.264 130.586 113.521 131.223C113.775 131.851 114.023 132.465 114.265 133.065C114.503 133.655 114.729 134.212 114.941 134.737Z" fill="#D9D9D9"/>
<path d="M129.438 127.249C129.326 127.34 129.218 127.417 129.115 127.481C129.011 127.546 128.896 127.61 128.77 127.674C128.428 127.848 128.11 127.948 127.817 127.973C127.532 127.993 127.26 127.905 127.001 127.708C126.747 127.497 126.498 127.153 126.255 126.676C126.076 126.325 125.915 125.965 125.772 125.595C125.624 125.217 125.484 124.829 125.349 124.432C125.22 124.022 125.085 123.592 124.946 123.141C124.819 123.069 124.697 123.03 124.58 123.021C124.471 123.009 124.363 123.03 124.255 123.085C124.039 123.195 123.852 123.364 123.696 123.591C123.548 123.813 123.438 124.108 123.364 124.475C123.298 124.837 123.277 125.284 123.299 125.817C123.33 126.346 123.419 126.976 123.564 127.707L122.002 124.641L122.353 124.462C122.304 123.92 122.33 123.402 122.43 122.909C122.53 122.416 122.703 121.976 122.948 121.59C123.194 121.204 123.501 120.917 123.871 120.729C124.087 120.619 124.319 120.585 124.568 120.629C124.812 120.663 125.057 120.754 125.302 120.901C125.547 121.048 125.777 121.232 125.991 121.452C126.205 121.671 126.379 121.912 126.512 122.173C126.686 122.515 126.863 122.862 127.042 123.213C127.221 123.564 127.4 123.915 127.578 124.266C127.753 124.608 127.929 124.955 128.108 125.306C128.319 125.72 128.519 126.067 128.706 126.346C128.893 126.624 129.138 126.925 129.438 127.249ZM124.867 129.595C124.808 129.636 124.747 129.673 124.684 129.705C124.635 129.741 124.583 129.773 124.529 129.801C124.475 129.828 124.417 129.858 124.354 129.89C124.111 130.014 123.892 130.097 123.698 130.139C123.499 130.172 123.325 130.165 123.176 130.116C123.026 130.068 122.895 129.987 122.781 129.875C122.676 129.758 122.58 129.614 122.493 129.443C122.263 128.993 122.043 128.561 121.832 128.147C121.617 127.724 121.408 127.314 121.206 126.918C121 126.513 120.798 126.116 120.6 125.729C120.399 125.333 120.199 124.941 120.002 124.554C119.878 124.311 119.738 124.082 119.583 123.866C119.428 123.65 119.259 123.487 119.078 123.375C119.14 123.32 119.197 123.275 119.246 123.238C119.305 123.197 119.363 123.156 119.421 123.115C119.48 123.074 119.536 123.039 119.59 123.012C119.887 122.86 120.187 122.793 120.49 122.808C120.788 122.815 121.081 122.944 121.368 123.195C121.654 123.446 121.942 123.855 122.231 124.422C122.529 125.007 122.834 125.606 123.146 126.218C123.454 126.822 123.754 127.411 124.048 127.988C124.337 128.555 124.61 129.091 124.867 129.595Z" fill="#D9D9D9"/>
<path d="M131.167 116.006C131.786 115.663 132.383 115.499 132.958 115.515C133.528 115.523 134.053 115.688 134.533 116.012C135.017 116.321 135.42 116.768 135.743 117.351L135.78 117.417C135.966 117.753 136.086 118.022 136.14 118.223C136.203 118.419 136.216 118.568 136.179 118.669C136.138 118.761 136.073 118.832 135.985 118.881L133.029 120.52C132.763 120.667 132.505 120.764 132.254 120.811C132.011 120.853 131.792 120.853 131.596 120.811L131.404 121.091L131.001 120.24L134.051 118.549C134.034 118.478 134.006 118.407 133.967 118.336C133.932 118.251 133.897 118.178 133.863 118.116C133.745 117.904 133.613 117.718 133.466 117.557C133.314 117.387 133.139 117.258 132.94 117.172C132.81 117.186 132.691 117.212 132.584 117.248C132.477 117.284 132.331 117.354 132.145 117.457C131.571 117.775 131.232 118.258 131.128 118.904C131.024 119.551 131.227 120.334 131.737 121.253L131.773 121.32C131.915 121.576 132.063 121.8 132.216 121.993C132.373 122.172 132.538 122.323 132.71 122.447C132.981 122.435 133.264 122.382 133.558 122.288C133.857 122.181 134.201 122.019 134.589 121.804C134.881 121.642 135.154 121.467 135.408 121.28C135.658 121.084 135.886 120.871 136.094 120.64C136.31 120.405 136.498 120.151 136.658 119.877L136.738 119.833C136.8 119.903 136.857 119.975 136.91 120.049C136.963 120.124 137.011 120.201 137.055 120.281C137.207 120.555 137.295 120.807 137.318 121.036C137.35 121.261 137.335 121.483 137.272 121.703C137.209 121.923 137.091 122.138 136.919 122.349C136.743 122.551 136.531 122.743 136.286 122.926C136.045 123.117 135.779 123.293 135.487 123.455C134.939 123.759 134.389 123.954 133.836 124.041C133.293 124.123 132.767 124.102 132.26 123.979C131.761 123.851 131.297 123.617 130.866 123.278C130.444 122.934 130.082 122.488 129.778 121.94L129.734 121.861C129.42 121.295 129.222 120.729 129.139 120.163C129.051 119.587 129.071 119.039 129.198 118.518C129.334 117.992 129.567 117.517 129.897 117.091C130.231 116.651 130.655 116.29 131.167 116.006Z" fill="#D9D9D9"/>
<path d="M139.134 108.708C139.434 108.52 139.72 108.377 139.992 108.279C140.268 108.166 140.515 108.095 140.735 108.065C140.963 108.03 141.156 108.034 141.315 108.078C141.504 108.114 141.666 108.192 141.8 108.311C141.937 108.416 142.089 108.601 142.255 108.867C142.378 109.064 142.476 109.259 142.549 109.452C142.625 109.631 142.685 109.832 142.729 110.054L142.651 110.103C142.138 110.006 141.701 109.993 141.34 110.064C140.974 110.126 140.577 110.291 140.148 110.559C139.754 110.805 139.466 111.116 139.284 111.492C139.101 111.868 139.029 112.277 139.067 112.718C139.107 113.145 139.261 113.573 139.529 114.002L139.609 114.13C139.733 114.327 139.88 114.515 140.051 114.694C140.231 114.868 140.447 115.013 140.699 115.13C140.953 115.078 141.202 115 141.446 114.895C141.699 114.785 141.966 114.642 142.249 114.465C142.618 114.235 142.927 114.005 143.178 113.777C143.432 113.535 143.644 113.283 143.814 113.022C143.988 112.747 144.135 112.458 144.256 112.156L144.333 112.108C144.404 112.183 144.471 112.261 144.533 112.341C144.595 112.421 144.666 112.526 144.746 112.654C144.912 112.92 145.024 113.184 145.08 113.446C145.14 113.695 145.141 113.945 145.084 114.195C145.044 114.399 144.952 114.605 144.809 114.814C144.665 115.023 144.472 115.238 144.23 115.461C143.988 115.684 143.679 115.913 143.302 116.149C142.864 116.422 142.382 116.604 141.855 116.695C141.337 116.781 140.817 116.778 140.295 116.687C139.774 116.596 139.288 116.41 138.84 116.131C138.399 115.846 138.037 115.476 137.754 115.022L137.665 114.881C137.189 114.118 136.936 113.352 136.909 112.583C136.881 111.814 137.058 111.096 137.439 110.428C137.815 109.752 138.38 109.179 139.134 108.708Z" fill="#D9D9D9"/>
<path d="M141.854 105.697L147.176 101.831C147.487 101.605 147.753 101.524 147.974 101.588C148.198 101.638 148.444 101.847 148.711 102.215C148.77 102.297 148.826 102.381 148.877 102.469C148.928 102.557 148.976 102.64 149.021 102.72C149.061 102.791 149.096 102.865 149.127 102.943L145.007 105.936C144.623 106.216 144.282 106.426 143.985 106.567C143.696 106.702 143.435 106.773 143.202 106.779C142.972 106.772 142.762 106.706 142.572 106.582C142.39 106.451 142.212 106.268 142.04 106.031C142.011 105.99 141.984 105.953 141.96 105.92C141.939 105.874 141.916 105.834 141.892 105.801C141.877 105.762 141.864 105.728 141.854 105.697ZM151.319 105.959C151.383 106.013 151.449 106.078 151.516 106.153C151.578 106.221 151.632 106.288 151.68 106.353C151.882 106.631 152.017 106.895 152.086 107.144C152.155 107.394 152.17 107.646 152.129 107.9C152.112 108.013 152.074 108.134 152.018 108.262C151.963 108.377 151.883 108.498 151.776 108.625C151.683 108.755 151.565 108.885 151.421 109.014C151.284 109.152 151.117 109.291 150.921 109.434C150.553 109.701 150.175 109.895 149.787 110.014C149.405 110.142 149.031 110.195 148.666 110.173C148.3 110.151 147.964 110.058 147.657 109.894C147.345 109.721 147.072 109.476 146.841 109.157C146.508 108.699 146.176 108.241 145.843 107.783C145.504 107.317 145.172 106.86 144.845 106.41C144.512 105.952 144.18 105.494 143.847 105.036C143.509 104.57 143.176 104.113 142.849 103.663C142.707 103.467 142.555 103.284 142.394 103.113C142.241 102.937 142.066 102.783 141.87 102.651C141.971 102.515 142.081 102.391 142.2 102.28C142.319 102.168 142.44 102.068 142.563 101.979C142.759 101.836 142.967 101.754 143.188 101.731C143.403 101.7 143.62 101.741 143.841 101.856C144.064 101.956 144.273 102.141 144.469 102.411C144.802 102.869 145.128 103.319 145.449 103.76C145.77 104.202 146.094 104.647 146.42 105.097C146.747 105.546 147.074 105.996 147.4 106.446C147.721 106.887 148.045 107.333 148.372 107.782C148.443 107.88 148.512 107.967 148.58 108.043C148.647 108.119 148.72 108.185 148.798 108.241C148.956 108.201 149.102 108.151 149.234 108.093C149.369 108.02 149.509 107.93 149.657 107.823C149.926 107.627 150.159 107.44 150.353 107.261C150.548 107.082 150.712 106.894 150.844 106.698C150.984 106.496 151.118 106.268 151.245 106.013L151.319 105.959Z" fill="#D9D9D9"/>
<defs>
<filter id="filter0_f_145_421" x="31.2469" y="22.6153" width="136.56" height="114.835" filterUnits="userSpaceOnUse" color-interpolation-filters="sRGB">
<feFlood flood-opacity="0" result="BackgroundImageFix"/>
<feBlend mode="normal" in="SourceGraphic" in2="BackgroundImageFix" result="shape"/>
<feGaussianBlur stdDeviation="8.40369" result="effect1_foregroundBlur_145_421"/>
</filter>
<linearGradient id="paint0_linear_145_421" x1="90.5039" y1="98.4849" x2="96.3183" y2="67.8156" gradientUnits="userSpaceOnUse">
<stop offset="0.04" stop-color="#B5B7C9"/>
<stop offset="0.41" stop-color="#545A87"/>
</linearGradient>
<radialGradient id="paint1_radial_145_421" cx="0" cy="0" r="1" gradientUnits="userSpaceOnUse" gradientTransform="translate(95.8187 83.6068) rotate(-67.1339) scale(15.9642 21.831)">
<stop stop-color="#FDEFC5"/>
<stop offset="0.8" stop-color="#3C3952"/>
</radialGradient>
</defs>
</svg>
