<svg width="1280" height="871" viewBox="0 0 1280 871" fill="none" xmlns="http://www.w3.org/2000/svg">
<g clip-path="url(#clip0_85_622)">
<path d="M94.6489 338.474L92.2914 351.734C92.0844 352.899 91.2788 353.868 90.1717 354.284L73.5959 360.513C70.9541 361.506 70.6488 365.121 73.0865 366.543L85.3112 373.674C86.4074 374.314 87.0482 375.518 86.9662 376.784L86.1504 389.383C85.9528 392.435 89.6118 394.134 91.8158 392.014L101.397 382.798C102.457 381.778 104.058 381.569 105.344 382.283L117.563 389.061C120.171 390.507 123.227 388.082 122.41 385.214L118.274 370.688C117.951 369.552 118.25 368.329 119.062 367.47L127.554 358.484C129.45 356.477 128.241 353.167 125.498 352.854L112.967 351.428C112.064 351.325 111.243 350.861 110.689 350.141L100.603 337.018C98.8293 334.71 95.1584 335.607 94.6489 338.474Z" fill="#FFDC5C" stroke="#FFDC5C" stroke-width="1.34"/>
<rect x="86.7651" y="358.659" width="8.375" height="3.015" rx="1.5075" transform="rotate(-25 86.7651 358.659)" fill="#FFE8C7"/>
<rect x="79.73" y="360.735" width="4.86706" height="3.015" rx="1.5075" transform="rotate(-15 79.73 360.735)" fill="#FFE8C7"/>
<rect x="94.1348" y="353.204" width="7.23902" height="3.015" rx="1.5075" transform="rotate(-80 94.1348 353.204)" fill="#FFE8C7"/>
<path d="M234.618 183.681L233.457 190.212C233.355 190.786 232.958 191.263 232.413 191.468L224.249 194.536C222.948 195.026 222.797 196.806 223.998 197.506L230.019 201.019C230.559 201.334 230.874 201.927 230.834 202.55L230.432 208.756C230.335 210.259 232.137 211.096 233.223 210.052L237.942 205.512C238.464 205.01 239.252 204.907 239.886 205.259L245.904 208.597C247.189 209.31 248.694 208.115 248.292 206.702L246.255 199.548C246.095 198.988 246.243 198.386 246.642 197.963L250.825 193.537C251.759 192.549 251.164 190.918 249.812 190.764L243.64 190.062C243.196 190.011 242.791 189.782 242.519 189.428L237.551 182.964C236.677 181.827 234.869 182.269 234.618 183.681Z" fill="#FFDC5C" stroke="#FFDC5C" stroke-width="0.66"/>
<rect x="230.735" y="193.623" width="4.125" height="1.485" rx="0.7425" transform="rotate(-25 230.735 193.623)" fill="#FFE8C7"/>
<rect x="227.27" y="194.646" width="2.39721" height="1.485" rx="0.7425" transform="rotate(-15 227.27 194.646)" fill="#FFE8C7"/>
<rect x="234.365" y="190.936" width="3.56549" height="1.485" rx="0.7425" transform="rotate(-80 234.365 190.936)" fill="#FFE8C7"/>
<path d="M980.332 370.685L978.854 378.998C978.725 379.727 978.22 380.335 977.526 380.596L967.135 384.501C965.479 385.123 965.287 387.389 966.815 388.281L974.479 392.751C975.166 393.152 975.568 393.907 975.516 394.7L975.005 402.598C974.881 404.511 977.175 405.576 978.556 404.247L984.562 398.47C985.227 397.831 986.23 397.7 987.036 398.147L994.696 402.396C996.331 403.303 998.247 401.783 997.735 399.985L995.142 390.879C994.939 390.167 995.127 389.4 995.636 388.862L1000.96 383.229C1002.15 381.971 1001.39 379.896 999.67 379.7L991.815 378.806C991.249 378.741 990.734 378.45 990.387 377.999L984.065 369.773C982.953 368.326 980.652 368.888 980.332 370.685Z" fill="#FFDC5C" stroke="#FFDC5C" stroke-width="0.84"/>
<rect x="975.39" y="383.339" width="5.25" height="1.89" rx="0.945" transform="rotate(-25 975.39 383.339)" fill="#FFE8C7"/>
<rect x="970.98" y="384.64" width="3.051" height="1.89" rx="0.945" transform="rotate(-15 970.98 384.64)" fill="#FFE8C7"/>
<rect x="980.01" y="379.919" width="4.53789" height="1.89" rx="0.945" transform="rotate(-80 980.01 379.919)" fill="#FFE8C7"/>
<path d="M905.701 306.244L904.362 313.774C904.244 314.435 903.787 314.985 903.158 315.222L893.746 318.759C892.245 319.323 892.072 321.376 893.456 322.183L900.398 326.233C901.021 326.596 901.384 327.28 901.338 327.999L900.875 335.153C900.762 336.886 902.84 337.851 904.092 336.647L909.532 331.414C910.134 330.835 911.043 330.716 911.774 331.121L918.713 334.97C920.193 335.791 921.929 334.414 921.465 332.786L919.116 324.537C918.933 323.892 919.103 323.197 919.563 322.71L924.386 317.607C925.463 316.467 924.776 314.587 923.218 314.41L916.102 313.6C915.59 313.542 915.123 313.278 914.809 312.869L909.082 305.418C908.074 304.107 905.99 304.616 905.701 306.244Z" fill="#FFDC5C" stroke="#FFDC5C" stroke-width="0.760926"/>
<rect x="901.224" y="317.707" width="4.75578" height="1.71208" rx="0.856041" transform="rotate(-25 901.224 317.707)" fill="#FFE8C7"/>
<rect x="897.229" y="318.885" width="2.76379" height="1.71208" rx="0.856041" transform="rotate(-15 897.229 318.885)" fill="#FFE8C7"/>
<rect x="905.409" y="314.609" width="4.11071" height="1.71208" rx="0.856041" transform="rotate(-80 905.409 314.609)" fill="#FFE8C7"/>
<path d="M266.113 540.016L265.683 541.557C265.42 542.502 264.666 543.229 263.712 543.458L261.29 544.039C258.795 544.638 258.585 548.107 260.99 549.002C262.098 549.415 262.788 550.529 262.668 551.706C262.449 553.869 264.801 555.361 266.653 554.224L269.67 552.372C270.365 551.945 271.215 551.856 271.984 552.128L275.561 553.394C277.725 554.16 279.754 551.963 278.819 549.867L278.708 549.62C278.256 548.605 278.597 547.411 279.518 546.79C281.32 545.573 280.571 542.766 278.402 542.608L275.745 542.415C275.184 542.374 274.649 542.159 274.216 541.8L270.439 538.663C268.933 537.413 266.638 538.13 266.113 540.016Z" fill="#FFDC5C" stroke="#FFDC5C" stroke-width="1.08"/>
<rect width="3.88932" height="1.06072" rx="0.53036" transform="matrix(0.958457 -0.285236 0.589958 0.807434 262.707 544.669)" fill="#FFE8C7"/>
<rect width="2.34237" height="0.989988" rx="0.494994" transform="matrix(0.985692 -0.168559 0.387114 0.922032 259.252 545.32)" fill="#FFE8C7"/>
<rect width="2.31819" height="1.46743" rx="0.733714" transform="matrix(0.266309 -0.963888 0.993728 0.111827 266.327 542.959)" fill="#FFE8C7"/>
<path d="M155.825 644.487L153.752 655.017C153.565 655.965 152.886 656.742 151.97 657.052L137.947 661.812C135.702 662.574 135.459 665.652 137.557 666.757L147.714 672.108C148.663 672.607 149.226 673.621 149.149 674.69L148.447 684.485C148.274 686.887 151.093 688.296 152.91 686.717L161.731 679.055C162.556 678.338 163.733 678.19 164.711 678.679L175.82 684.244C177.953 685.312 180.321 683.293 179.604 681.018L176.125 669.983C175.816 669.002 176.091 667.93 176.835 667.219L183.772 660.59C185.437 658.999 184.474 656.188 182.183 655.952L171.371 654.841C170.679 654.77 170.042 654.434 169.591 653.905L160.53 643.259C159.065 641.538 156.261 642.27 155.825 644.487Z" fill="#FFDC5C" stroke="#FFDC5C" stroke-width="1.08"/>
<rect width="7.07834" height="2.38682" rx="1.19341" transform="matrix(0.921622 -0.388088 0.458818 0.88853 148.987 660.467)" fill="#FFE8C7"/>
<rect width="4.15709" height="2.35767" rx="1.17883" transform="matrix(0.971952 -0.235181 0.284462 0.958687 142.941 662.078)" fill="#FFE8C7"/>
<rect width="5.63748" height="2.58404" rx="1.29202" transform="matrix(0.191641 -0.981465 0.987559 0.157249 155.322 656.233)" fill="#FFE8C7"/>
<path d="M1400.88 556.965C1400.88 645.364 1276.85 739.5 1179.15 739.5C1081.45 739.5 983 665.646 983 577.246C983 488.847 1081.45 398 1179.15 398C1276.85 398 1400.88 468.565 1400.88 556.965Z" fill="#FDEFC5"/>
<ellipse cx="16.713" cy="35.4518" rx="16.713" ry="35.4518" transform="matrix(0.859852 0.510544 -0.587121 0.809499 1087.88 442.643)" fill="#D9D9D9"/>
<ellipse cx="12.3869" cy="16.6984" rx="12.3869" ry="16.6984" transform="matrix(0.947052 0.32108 -0.38262 0.923906 1030.15 506.749)" fill="#D9D9D9"/>
<ellipse cx="23.6704" cy="46.6638" rx="23.6704" ry="46.6638" transform="matrix(0.82342 0.567433 -0.643986 0.765037 1315.93 590.331)" fill="#D9D9D9"/>
<ellipse cx="10.4857" cy="19.6375" rx="10.4857" ry="19.6375" transform="matrix(0.934338 -0.356388 0.422337 0.906439 1136.88 631.313)" fill="#D9D9D9"/>
<path d="M1244.12 593.211C1226.5 606.364 1199.28 579.508 1173.84 557.033C1149.01 530.505 1150.96 508.244 1168.58 495.092C1186.2 481.94 1210.85 499.327 1232.38 522.926C1253.9 546.524 1261.73 580.059 1244.12 593.211Z" fill="#D9D9D9"/>
</g>
<defs>
<clipPath id="clip0_85_622">
<rect width="1280" height="871" fill="white"/>
</clipPath>
</defs>
</svg>
