<svg width="1280" height="871" viewBox="0 0 1280 871" fill="none" xmlns="http://www.w3.org/2000/svg">
<g clip-path="url(#clip0_85_622)">
<path d="M100.914 541.194L98.9605 552.184C98.789 553.149 98.1213 553.952 97.2038 554.297L83.4665 559.46C81.277 560.283 81.024 563.278 83.0443 564.457L93.1756 570.367C94.0841 570.897 94.6152 571.894 94.5472 572.944L93.8711 583.386C93.7074 585.915 96.7398 587.323 98.5664 585.566L106.507 577.928C107.385 577.083 108.712 576.91 109.778 577.501L119.905 583.118C122.066 584.317 124.599 582.307 123.922 579.93L120.494 567.892C120.226 566.95 120.474 565.937 121.147 565.225L128.185 557.778C129.756 556.115 128.754 553.371 126.481 553.112L116.095 551.93C115.348 551.845 114.667 551.46 114.208 550.863L105.849 539.988C104.379 538.075 101.337 538.818 100.914 541.194Z" fill="#FFDC5C" stroke="#FFDC5C" stroke-width="1.11054"/>
<rect x="94.3804" y="557.923" width="6.94087" height="2.49871" rx="1.24936" transform="rotate(-25 94.3804 557.923)" fill="#FFE8C7"/>
<rect x="88.5503" y="559.643" width="4.03363" height="2.49871" rx="1.24936" transform="rotate(-15 88.5503 559.643)" fill="#FFE8C7"/>
<rect x="100.488" y="553.402" width="5.99942" height="2.49871" rx="1.24936" transform="rotate(-80 100.488 553.402)" fill="#FFE8C7"/>
<path d="M187.618 387.681L186.457 394.212C186.355 394.786 185.958 395.263 185.413 395.468L177.249 398.536C175.948 399.026 175.797 400.806 176.998 401.506L183.019 405.019C183.559 405.334 183.874 405.927 183.834 406.55L183.432 412.756C183.335 414.259 185.137 415.096 186.223 414.052L190.942 409.512C191.464 409.01 192.252 408.907 192.886 409.259L198.904 412.597C200.189 413.31 201.694 412.115 201.292 410.702L199.255 403.548C199.095 402.988 199.243 402.386 199.642 401.963L203.825 397.537C204.759 396.549 204.164 394.918 202.812 394.764L196.64 394.062C196.196 394.011 195.791 393.782 195.519 393.428L190.551 386.964C189.677 385.827 187.869 386.269 187.618 387.681Z" fill="#FFDC5C" stroke="#FFDC5C" stroke-width="0.66"/>
<rect x="183.735" y="397.623" width="4.125" height="1.485" rx="0.7425" transform="rotate(-25 183.735 397.623)" fill="#FFE8C7"/>
<rect x="180.27" y="398.646" width="2.39721" height="1.485" rx="0.7425" transform="rotate(-15 180.27 398.646)" fill="#FFE8C7"/>
<rect x="187.365" y="394.936" width="3.56549" height="1.485" rx="0.7425" transform="rotate(-80 187.365 394.936)" fill="#FFE8C7"/>
<path d="M1061.33 818.685L1059.85 826.998C1059.72 827.727 1059.22 828.335 1058.53 828.596L1048.13 832.501C1046.48 833.123 1046.29 835.389 1047.82 836.281L1055.48 840.751C1056.17 841.152 1056.57 841.907 1056.52 842.7L1056 850.598C1055.88 852.511 1058.17 853.576 1059.56 852.247L1065.56 846.47C1066.23 845.831 1067.23 845.7 1068.04 846.147L1075.7 850.396C1077.33 851.303 1079.25 849.783 1078.73 847.985L1076.14 838.879C1075.94 838.167 1076.13 837.4 1076.64 836.862L1081.96 831.229C1083.15 829.971 1082.39 827.896 1080.67 827.7L1072.81 826.806C1072.25 826.741 1071.73 826.45 1071.39 825.999L1065.06 817.773C1063.95 816.326 1061.65 816.888 1061.33 818.685Z" fill="#FFDC5C" stroke="#FFDC5C" stroke-width="0.84"/>
<rect x="1056.39" y="831.339" width="5.25" height="1.89" rx="0.945" transform="rotate(-25 1056.39 831.339)" fill="#FFE8C7"/>
<rect x="1051.98" y="832.64" width="3.051" height="1.89" rx="0.945" transform="rotate(-15 1051.98 832.64)" fill="#FFE8C7"/>
<rect x="1061.01" y="827.919" width="4.53789" height="1.89" rx="0.945" transform="rotate(-80 1061.01 827.919)" fill="#FFE8C7"/>
<path d="M1069.7 325.244L1068.36 332.774C1068.24 333.435 1067.79 333.985 1067.16 334.222L1057.75 337.759C1056.25 338.323 1056.07 340.376 1057.46 341.183L1064.4 345.233C1065.02 345.596 1065.38 346.28 1065.34 346.999L1064.87 354.153C1064.76 355.886 1066.84 356.851 1068.09 355.647L1073.53 350.414C1074.13 349.835 1075.04 349.716 1075.77 350.121L1082.71 353.97C1084.19 354.791 1085.93 353.414 1085.46 351.786L1083.12 343.537C1082.93 342.892 1083.1 342.197 1083.56 341.71L1088.39 336.607C1089.46 335.467 1088.78 333.587 1087.22 333.41L1080.1 332.6C1079.59 332.542 1079.12 332.278 1078.81 331.869L1073.08 324.418C1072.07 323.107 1069.99 323.616 1069.7 325.244Z" fill="#FFDC5C" stroke="#FFDC5C" stroke-width="0.760926"/>
<rect x="1065.22" y="336.707" width="4.75578" height="1.71208" rx="0.856041" transform="rotate(-25 1065.22 336.707)" fill="#FFE8C7"/>
<rect x="1061.23" y="337.885" width="2.76379" height="1.71208" rx="0.856041" transform="rotate(-15 1061.23 337.885)" fill="#FFE8C7"/>
<rect x="1069.41" y="333.609" width="4.11071" height="1.71208" rx="0.856041" transform="rotate(-80 1069.41 333.609)" fill="#FFE8C7"/>
<path d="M266.113 676.016L265.683 677.557C265.42 678.502 264.666 679.229 263.712 679.458L261.29 680.039C258.795 680.638 258.585 684.107 260.99 685.002C262.098 685.415 262.788 686.529 262.668 687.706C262.449 689.869 264.801 691.361 266.653 690.224L269.67 688.372C270.365 687.945 271.215 687.856 271.984 688.128L275.561 689.394C277.725 690.16 279.754 687.963 278.819 685.867L278.708 685.62C278.256 684.605 278.597 683.411 279.518 682.79C281.32 681.573 280.571 678.766 278.402 678.608L275.745 678.415C275.184 678.374 274.649 678.159 274.216 677.8L270.439 674.663C268.933 673.413 266.638 674.13 266.113 676.016Z" fill="#FFDC5C" stroke="#FFDC5C" stroke-width="1.08"/>
<rect width="3.88932" height="1.06072" rx="0.53036" transform="matrix(0.958457 -0.285236 0.589958 0.807434 262.707 680.669)" fill="#FFE8C7"/>
<rect width="2.34237" height="0.989988" rx="0.494994" transform="matrix(0.985692 -0.168559 0.387114 0.922032 259.252 681.32)" fill="#FFE8C7"/>
<rect width="2.31819" height="1.46743" rx="0.733714" transform="matrix(0.266309 -0.963888 0.993728 0.111827 266.327 678.959)" fill="#FFE8C7"/>
<path d="M958.605 537.635L958.323 538.647C958.151 539.267 957.656 539.744 957.03 539.894L955.441 540.276C953.803 540.668 953.665 542.945 955.243 543.533C955.971 543.803 956.423 544.535 956.345 545.307C956.201 546.726 957.744 547.706 958.96 546.959L960.94 545.744C961.396 545.464 961.954 545.405 962.458 545.584L964.806 546.415C966.226 546.918 967.557 545.476 966.944 544.1L966.871 543.938C966.574 543.272 966.798 542.489 967.402 542.081C968.585 541.282 968.093 539.44 966.67 539.337L964.926 539.21C964.558 539.183 964.207 539.042 963.923 538.806L961.444 536.748C960.456 535.927 958.95 536.398 958.605 537.635Z" fill="#FFDC5C" stroke="#FFDC5C" stroke-width="0.70875"/>
<rect width="2.55236" height="0.696097" rx="0.348048" transform="matrix(0.958457 -0.285236 0.589958 0.807434 956.37 540.689)" fill="#FFE8C7"/>
<rect width="1.53718" height="0.649679" rx="0.32484" transform="matrix(0.985692 -0.168559 0.387114 0.922032 954.103 541.116)" fill="#FFE8C7"/>
<rect width="1.52131" height="0.963" rx="0.4815" transform="matrix(0.266309 -0.963888 0.993728 0.111827 958.746 539.567)" fill="#FFE8C7"/>
<path d="M884.605 619.635L884.323 620.647C884.151 621.267 883.656 621.744 883.03 621.894L881.441 622.276C879.803 622.668 879.665 624.945 881.243 625.533C881.971 625.803 882.423 626.535 882.345 627.307C882.201 628.726 883.744 629.706 884.96 628.959L886.94 627.744C887.396 627.464 887.954 627.405 888.458 627.584L890.806 628.415C892.226 628.918 893.557 627.476 892.944 626.1L892.871 625.938C892.574 625.272 892.798 624.489 893.402 624.081C894.585 623.282 894.093 621.44 892.67 621.337L890.926 621.21C890.558 621.183 890.207 621.042 889.923 620.806L887.444 618.748C886.456 617.927 884.95 618.398 884.605 619.635Z" fill="#FFDC5C" stroke="#FFDC5C" stroke-width="0.70875"/>
<rect width="2.55236" height="0.696097" rx="0.348048" transform="matrix(0.958457 -0.285236 0.589958 0.807434 882.37 622.689)" fill="#FFE8C7"/>
<rect width="1.53718" height="0.649679" rx="0.32484" transform="matrix(0.985692 -0.168559 0.387114 0.922032 880.103 623.116)" fill="#FFE8C7"/>
<rect width="1.52131" height="0.963" rx="0.4815" transform="matrix(0.266309 -0.963888 0.993728 0.111827 884.746 621.567)" fill="#FFE8C7"/>
<path d="M149.868 756.116L148.314 764.013C148.174 764.724 147.664 765.306 146.978 765.539L136.46 769.109C134.777 769.68 134.594 771.989 136.168 772.818L143.786 776.831C144.497 777.205 144.919 777.965 144.862 778.767L144.335 786.114C144.206 787.915 146.32 788.972 147.683 787.788L154.298 782.041C154.917 781.503 155.8 781.392 156.533 781.759L164.865 785.933C166.464 786.734 168.241 785.22 167.703 783.513L165.094 775.237C164.862 774.501 165.068 773.697 165.626 773.164L170.829 768.193C172.078 766.999 171.355 764.891 169.637 764.714L161.528 763.881C161.009 763.827 160.531 763.576 160.193 763.179L153.397 755.194C152.299 753.904 150.196 754.453 149.868 756.116Z" fill="#FFDC5C" stroke="#FFDC5C" stroke-width="0.81"/>
<rect width="5.30875" height="1.79011" rx="0.895057" transform="matrix(0.921622 -0.388088 0.458818 0.88853 144.74 768.1)" fill="#FFE8C7"/>
<rect width="3.11782" height="1.76825" rx="0.884126" transform="matrix(0.971952 -0.235181 0.284462 0.958687 140.206 769.308)" fill="#FFE8C7"/>
<rect width="4.22811" height="1.93803" rx="0.969015" transform="matrix(0.191641 -0.981465 0.987559 0.157249 149.491 764.925)" fill="#FFE8C7"/>
<path d="M1400.88 641.965C1400.88 730.364 1276.85 824.5 1179.15 824.5C1081.45 824.5 983 750.646 983 662.246C983 573.847 1081.45 483 1179.15 483C1276.85 483 1400.88 553.565 1400.88 641.965Z" fill="#FDEFC5"/>
<ellipse cx="16.713" cy="35.4518" rx="16.713" ry="35.4518" transform="matrix(0.859852 0.510544 -0.587121 0.809499 1087.88 527.643)" fill="#D9D9D9"/>
<ellipse cx="12.3869" cy="16.6984" rx="12.3869" ry="16.6984" transform="matrix(0.947052 0.32108 -0.38262 0.923906 1030.15 591.749)" fill="#D9D9D9"/>
<ellipse cx="23.6704" cy="46.6638" rx="23.6704" ry="46.6638" transform="matrix(0.82342 0.567433 -0.643986 0.765037 1315.93 675.331)" fill="#D9D9D9"/>
<ellipse cx="10.4857" cy="19.6375" rx="10.4857" ry="19.6375" transform="matrix(0.934338 -0.356388 0.422337 0.906439 1136.88 716.313)" fill="#D9D9D9"/>
<path d="M1244.12 678.211C1226.5 691.364 1199.28 664.508 1173.84 642.033C1149.01 615.505 1150.96 593.244 1168.58 580.092C1186.2 566.94 1210.85 584.327 1232.38 607.926C1253.9 631.524 1261.73 665.059 1244.12 678.211Z" fill="#D9D9D9"/>
</g>
<defs>
<clipPath id="clip0_85_622">
<rect width="1280" height="871" fill="white"/>
</clipPath>
</defs>
</svg>
