<svg width="353" height="124" viewBox="0 0 353 124" fill="none" xmlns="http://www.w3.org/2000/svg">
<g filter="url(#filter0_f_174_1152)">
<path d="M76.7925 54.8022C76.7925 66.4709 100.13 78.3826 100.13 78.3826C100.13 78.3826 123.467 66.4709 123.467 54.8022" stroke="#F6CABC" stroke-width="48.6193" stroke-linecap="round"/>
</g>
<path d="M76.7925 54.8022C76.7925 66.4709 100.13 78.3826 100.13 78.3826C100.13 78.3826 123.467 66.4709 123.467 54.8022" stroke="#F9DDB5" stroke-width="48.6193" stroke-linecap="round"/>
<path d="M150.651 65.9676C149.771 65.7226 148.869 65.4775 147.945 65.2373C147.916 65.6601 147.864 66.0733 147.813 66.4914C156.431 68.7737 161.396 70.9502 160.92 72.5839C160.436 74.2512 154.377 75.068 144.769 75.068C133.202 75.068 116.487 73.886 98.1286 71.5797C78.4207 69.1004 61.2065 65.8763 50.5494 62.8877C43.0388 60.7832 38.7848 58.7988 39.2322 57.2805C39.665 55.791 44.5351 54.9838 52.3977 54.8252C52.4271 54.7579 52.4491 54.6955 52.4784 54.633C52.5884 54.3832 52.7058 54.1381 52.8231 53.8931C40.8458 54.1669 33.6433 55.5892 32.9905 57.8234C32.3084 60.1586 38.7408 63.3922 50.6448 66.698C50.6814 66.7076 50.7255 66.7172 50.7621 66.7316C63.0695 70.1382 79.8216 73.271 97.9526 75.5533C114.045 77.5761 129.506 78.7149 142.129 78.8158C143.772 78.8302 145.363 78.8254 146.896 78.8062C159.819 78.6236 167.631 77.1773 168.313 74.847C168.995 72.507 162.563 69.2734 150.651 65.9676Z" fill="url(#paint0_linear_174_1152)"/>
<path d="M148.011 63.5076V63.5989C148.011 63.8824 148.004 64.161 147.996 64.4445C149.06 64.7184 150.102 64.9971 151.106 65.2806C160.04 67.7599 170.477 71.4596 169.443 74.9863C168.409 78.5131 156.622 79.4164 146.926 79.5558C145.972 79.5702 144.997 79.575 143.999 79.575C143.178 79.575 142.342 79.5702 141.491 79.5605C128.919 79.4212 113.627 78.2873 97.7329 76.2885C79.8146 74.035 63.2311 70.9503 50.9091 67.5869C50.6671 67.5196 50.4324 67.4572 50.1977 67.3899C41.2642 64.9106 30.8271 61.2109 31.8613 57.6841C32.8515 54.2967 43.7506 53.3309 53.2122 53.1339C53.4102 52.7544 53.6229 52.3748 53.8503 52C37.7876 52.2066 27.1158 54.143 26.0817 57.6649C24.9815 61.4223 35.0738 66.1551 51.6646 70.465C63.6566 73.5785 79.0518 76.4711 96.0679 78.614C111.955 80.6128 126.902 81.6555 139.32 81.7996C158.588 82.0206 171.768 80.0699 172.919 76.1347C173.997 72.4254 164.199 67.7695 148.011 63.5076Z" fill="url(#paint1_radial_174_1152)"/>
<path d="M197.568 47.8C198.128 47.8 198.632 47.848 199.08 47.944C199.544 48.024 199.936 48.136 200.256 48.28C200.592 48.424 200.848 48.592 201.024 48.784C201.248 48.992 201.4 49.232 201.48 49.504C201.576 49.76 201.624 50.136 201.624 50.632C201.624 51 201.592 51.344 201.528 51.664C201.48 51.968 201.392 52.288 201.264 52.624H201.12C200.512 52.064 199.936 51.68 199.392 51.472C198.848 51.248 198.176 51.136 197.376 51.136C196.64 51.136 195.992 51.312 195.432 51.664C194.872 52.016 194.432 52.504 194.112 53.128C193.808 53.736 193.656 54.44 193.656 55.24V55.48C193.656 55.848 193.696 56.224 193.776 56.608C193.872 56.992 194.04 57.368 194.28 57.736C194.664 57.88 195.064 57.984 195.48 58.048C195.912 58.112 196.392 58.144 196.92 58.144C197.608 58.144 198.216 58.096 198.744 58C199.288 57.888 199.784 57.728 200.232 57.52C200.696 57.296 201.136 57.032 201.552 56.728H201.696C201.728 56.888 201.752 57.048 201.768 57.208C201.784 57.368 201.792 57.568 201.792 57.808C201.792 58.304 201.72 58.752 201.576 59.152C201.448 59.536 201.24 59.872 200.952 60.16C200.728 60.4 200.432 60.6 200.064 60.76C199.696 60.92 199.256 61.048 198.744 61.144C198.232 61.24 197.624 61.288 196.92 61.288C196.104 61.288 195.304 61.128 194.52 60.808C193.752 60.488 193.056 60.048 192.432 59.488C191.808 58.928 191.312 58.272 190.944 57.52C190.592 56.768 190.416 55.968 190.416 55.12V54.856C190.416 53.432 190.72 52.192 191.328 51.136C191.936 50.08 192.776 49.264 193.848 48.688C194.92 48.096 196.16 47.8 197.568 47.8ZM210.663 47.8C211.463 47.8 212.215 47.952 212.919 48.256C213.639 48.544 214.271 48.984 214.815 49.576C215.375 50.168 215.815 50.912 216.135 51.808C216.455 52.688 216.615 53.728 216.615 54.928V55.24C216.615 56.44 216.351 57.496 215.823 58.408C215.311 59.32 214.599 60.032 213.687 60.544C212.775 61.04 211.711 61.288 210.495 61.288C209.679 61.288 208.911 61.168 208.191 60.928C207.487 60.672 206.863 60.296 206.319 59.8C205.775 59.304 205.343 58.672 205.023 57.904C204.719 57.136 204.567 56.24 204.567 55.216V54.904C204.567 53.48 204.823 52.24 205.335 51.184C205.863 50.112 206.583 49.28 207.495 48.688C208.407 48.096 209.463 47.8 210.663 47.8ZM211.071 50.848C210.319 50.848 209.695 51.008 209.199 51.328C208.703 51.632 208.327 52.104 208.071 52.744C207.831 53.368 207.711 54.168 207.711 55.144V55.312C207.711 55.84 207.751 56.336 207.831 56.8C207.911 57.264 208.039 57.688 208.215 58.072C208.487 58.136 208.759 58.184 209.031 58.216C209.303 58.232 209.631 58.24 210.015 58.24C210.799 58.24 211.439 58.128 211.935 57.904C212.447 57.68 212.831 57.328 213.087 56.848C213.343 56.352 213.471 55.736 213.471 55V54.832C213.471 54.064 213.415 53.368 213.303 52.744C213.191 52.12 213.015 51.552 212.775 51.04C212.551 50.96 212.303 50.912 212.031 50.896C211.775 50.864 211.455 50.848 211.071 50.848ZM224.981 58.024C225.589 58.024 226.125 57.976 226.589 57.88C227.053 57.784 227.437 57.664 227.741 57.52C227.789 57.328 227.773 57.128 227.693 56.92C227.613 56.696 227.453 56.496 227.213 56.32C226.973 56.144 226.621 56.008 226.157 55.912L223.445 55.288C222.549 55.08 221.821 54.848 221.261 54.592C220.717 54.32 220.317 53.992 220.061 53.608C219.821 53.208 219.701 52.72 219.701 52.144C219.701 51.44 219.885 50.824 220.253 50.296C220.637 49.752 221.149 49.296 221.789 48.928C222.429 48.56 223.157 48.28 223.973 48.088C224.789 47.896 225.629 47.8 226.493 47.8C227.069 47.8 227.549 47.824 227.933 47.872C228.333 47.904 228.661 47.968 228.917 48.064C229.173 48.144 229.365 48.256 229.493 48.4C229.669 48.544 229.805 48.736 229.901 48.976C229.997 49.2 230.069 49.472 230.117 49.792C230.181 50.112 230.213 50.472 230.213 50.872C230.213 51.032 230.205 51.184 230.189 51.328C230.173 51.456 230.149 51.592 230.117 51.736H229.973C229.669 51.576 229.349 51.448 229.013 51.352C228.693 51.256 228.333 51.184 227.933 51.136C227.549 51.072 227.077 51.04 226.517 51.04C225.717 51.04 225.053 51.096 224.525 51.208C223.997 51.304 223.597 51.44 223.325 51.616C223.069 51.792 222.941 52.008 222.941 52.264C222.941 52.424 222.997 52.568 223.109 52.696C223.221 52.824 223.421 52.944 223.709 53.056C224.013 53.168 224.445 53.28 225.005 53.392L227.261 53.872C228.109 54.032 228.797 54.272 229.325 54.592C229.853 54.912 230.229 55.288 230.453 55.72C230.693 56.136 230.813 56.608 230.813 57.136C230.813 58.08 230.597 58.864 230.165 59.488C229.733 60.096 229.069 60.552 228.173 60.856C227.277 61.144 226.125 61.288 224.717 61.288C224.029 61.288 223.413 61.256 222.869 61.192C222.341 61.144 221.869 61.072 221.453 60.976C221.053 60.88 220.717 60.768 220.445 60.64C220.173 60.512 219.973 60.392 219.845 60.28C219.621 60.024 219.437 59.72 219.293 59.368C219.165 59.016 219.101 58.512 219.101 57.856C219.101 57.616 219.109 57.4 219.125 57.208C219.157 57.016 219.189 56.848 219.221 56.704H219.365C219.781 56.944 220.165 57.152 220.517 57.328C220.885 57.488 221.269 57.624 221.669 57.736C222.069 57.832 222.533 57.904 223.061 57.952C223.605 58 224.245 58.024 224.981 58.024ZM246.044 61C245.9 61.032 245.764 61.056 245.636 61.072C245.508 61.088 245.372 61.096 245.228 61.096C245.1 61.112 244.956 61.12 244.796 61.12C244.204 61.12 243.724 61.032 243.356 60.856C242.988 60.68 242.724 60.36 242.564 59.896C242.404 59.432 242.324 58.776 242.324 57.928C242.324 57.544 242.332 57.16 242.348 56.776C242.364 56.376 242.38 55.968 242.396 55.552C242.412 55.136 242.444 54.712 242.492 54.28C242.54 53.832 242.588 53.368 242.636 52.888C242.684 52.408 242.748 51.912 242.828 51.4C242.764 51.32 242.684 51.264 242.588 51.232C242.492 51.184 242.388 51.16 242.276 51.16C241.972 51.16 241.684 51.264 241.412 51.472C241.14 51.664 240.892 51.952 240.668 52.336C240.444 52.704 240.252 53.152 240.092 53.68V50.392H240.476C240.716 49.896 240.988 49.456 241.292 49.072C241.596 48.688 241.916 48.384 242.252 48.16C242.604 47.92 242.948 47.8 243.284 47.8C243.572 47.8 243.844 47.904 244.1 48.112C244.372 48.304 244.62 48.552 244.844 48.856C245.068 49.144 245.244 49.456 245.372 49.792C245.516 50.128 245.588 50.432 245.588 50.704C245.588 51.264 245.588 51.824 245.588 52.384C245.588 52.928 245.588 53.472 245.588 54.016C245.588 54.56 245.588 55.104 245.588 55.648C245.588 56.192 245.588 56.744 245.588 57.304C245.588 58.04 245.62 58.672 245.684 59.2C245.748 59.728 245.868 60.328 246.044 61ZM240.332 61C240.3 61.016 240.26 61.024 240.212 61.024C240.164 61.04 240.116 61.048 240.068 61.048C240.02 61.064 239.964 61.072 239.9 61.072C239.516 61.072 239.196 60.992 238.94 60.832C238.684 60.656 238.492 60.392 238.364 60.04C238.252 59.688 238.196 59.224 238.196 58.648C238.196 58.248 238.196 57.848 238.196 57.448C238.212 57.032 238.228 56.608 238.244 56.176C238.276 55.728 238.308 55.264 238.34 54.784C238.372 54.304 238.412 53.792 238.46 53.248C238.524 52.704 238.58 52.12 238.628 51.496C238.58 51.416 238.524 51.352 238.46 51.304C238.412 51.256 238.356 51.224 238.292 51.208C238.228 51.176 238.148 51.16 238.052 51.16C237.812 51.16 237.572 51.256 237.332 51.448C237.108 51.64 236.884 51.92 236.66 52.288C236.436 52.656 236.212 53.136 235.988 53.728L235.916 50.416H236.3C236.476 49.888 236.684 49.44 236.924 49.072C237.18 48.688 237.452 48.392 237.74 48.184C238.028 47.96 238.324 47.848 238.628 47.848C238.9 47.848 239.14 47.944 239.348 48.136C239.556 48.328 239.732 48.576 239.876 48.88C240.02 49.168 240.132 49.456 240.212 49.744C240.292 50.032 240.332 50.288 240.332 50.512C240.332 51.392 240.332 52.272 240.332 53.152C240.348 54.016 240.356 54.888 240.356 55.768C240.356 56.632 240.348 57.504 240.332 58.384C240.332 59.248 240.332 60.12 240.332 61ZM236.204 61.024C236.124 61.04 236.036 61.056 235.94 61.072C235.844 61.088 235.748 61.096 235.652 61.096C235.556 61.112 235.452 61.12 235.34 61.12C235.228 61.136 235.108 61.144 234.98 61.144C234.676 61.144 234.412 61.128 234.188 61.096C233.964 61.064 233.772 61 233.612 60.904C233.468 60.808 233.356 60.672 233.276 60.496C233.196 60.32 233.156 60.088 233.156 59.8C233.156 58.76 233.156 57.728 233.156 56.704C233.156 55.664 233.156 54.632 233.156 53.608C233.156 52.568 233.156 51.536 233.156 50.512C233.156 50.032 233.132 49.608 233.084 49.24C233.052 48.856 232.98 48.456 232.868 48.04C232.932 48.024 233.004 48.008 233.084 47.992C233.164 47.976 233.236 47.968 233.3 47.968C233.38 47.952 233.46 47.944 233.54 47.944C233.62 47.944 233.7 47.944 233.78 47.944C234.1 47.944 234.404 48.008 234.692 48.136C234.98 48.264 235.236 48.456 235.46 48.712C235.7 48.952 235.884 49.264 236.012 49.648C236.14 50.032 236.204 50.488 236.204 51.016C236.204 52.12 236.204 53.232 236.204 54.352C236.204 55.472 236.204 56.584 236.204 57.688C236.204 58.792 236.204 59.904 236.204 61.024ZM253.331 58.024L253.523 57.616C253.283 57.328 253.099 56.968 252.971 56.536C252.859 56.104 252.803 55.584 252.803 54.976C252.803 54.656 252.803 54.352 252.803 54.064C252.803 53.76 252.803 53.456 252.803 53.152C252.803 52.832 252.803 52.528 252.803 52.24C252.803 51.936 252.803 51.632 252.803 51.328C252.803 51.024 252.803 50.728 252.803 50.44L252.707 50.344C252.147 50.632 251.651 50.856 251.219 51.016C250.803 51.176 250.451 51.288 250.163 51.352C249.875 51.416 249.635 51.448 249.443 51.448C249.203 51.448 248.979 51.384 248.771 51.256C248.563 51.112 248.403 50.896 248.291 50.608C248.179 50.304 248.123 49.912 248.123 49.432C248.123 49.192 248.139 48.952 248.171 48.712C248.203 48.472 248.251 48.264 248.315 48.088C248.715 48.04 249.187 48 249.73 47.968C250.291 47.936 250.843 47.912 251.387 47.896C251.947 47.864 252.419 47.848 252.803 47.848C253.555 47.848 254.163 47.92 254.627 48.064C255.107 48.192 255.459 48.424 255.683 48.76C255.923 49.096 256.043 49.584 256.043 50.224C256.043 50.784 256.043 51.336 256.043 51.88C256.043 52.408 256.043 52.952 256.043 53.512C256.043 54.056 256.043 54.608 256.043 55.168C256.043 55.728 256.043 56.28 256.043 56.824C256.043 57.368 256.043 57.92 256.043 58.48L253.331 58.024ZM248.171 57.76H255.323C256.507 57.76 257.443 57.856 258.131 58.048C258.835 58.24 259.347 58.512 259.667 58.864C259.987 59.216 260.147 59.624 260.147 60.088C260.147 60.2 260.139 60.304 260.122 60.4C260.122 60.496 260.107 60.6 260.075 60.712C260.059 60.808 260.035 60.904 260.003 61H250.403C249.779 61 249.299 60.928 248.963 60.784C248.627 60.64 248.395 60.4 248.267 60.064C248.139 59.728 248.075 59.272 248.075 58.696C248.075 58.568 248.075 58.456 248.075 58.36C248.091 58.248 248.107 58.144 248.123 58.048C248.139 57.952 248.155 57.856 248.171 57.76ZM252.179 42.928C252.307 42.88 252.459 42.832 252.635 42.784C252.811 42.736 252.987 42.696 253.163 42.664C253.355 42.632 253.547 42.608 253.739 42.592C253.947 42.576 254.147 42.568 254.339 42.568C255.043 42.568 255.619 42.688 256.067 42.928C256.515 43.152 256.739 43.568 256.739 44.176V45.832C256.611 45.88 256.467 45.928 256.307 45.976C256.163 46.024 256.003 46.064 255.827 46.096C255.667 46.128 255.499 46.152 255.323 46.168C255.163 46.184 254.995 46.192 254.819 46.192C254.051 46.192 253.419 46.016 252.923 45.664C252.427 45.312 252.179 44.848 252.179 44.272V42.928ZM269.521 47.8C270.081 47.8 270.585 47.848 271.033 47.944C271.497 48.024 271.889 48.136 272.209 48.28C272.545 48.424 272.801 48.592 272.977 48.784C273.201 48.992 273.353 49.232 273.433 49.504C273.529 49.76 273.577 50.136 273.577 50.632C273.577 51 273.545 51.344 273.481 51.664C273.433 51.968 273.345 52.288 273.217 52.624H273.073C272.465 52.064 271.889 51.68 271.345 51.472C270.801 51.248 270.129 51.136 269.329 51.136C268.593 51.136 267.945 51.312 267.385 51.664C266.825 52.016 266.385 52.504 266.065 53.128C265.761 53.736 265.609 54.44 265.609 55.24V55.48C265.609 55.848 265.649 56.224 265.729 56.608C265.825 56.992 265.993 57.368 266.233 57.736C266.617 57.88 267.017 57.984 267.433 58.048C267.865 58.112 268.345 58.144 268.873 58.144C269.561 58.144 270.169 58.096 270.697 58C271.241 57.888 271.737 57.728 272.185 57.52C272.649 57.296 273.089 57.032 273.505 56.728H273.649C273.681 56.888 273.705 57.048 273.721 57.208C273.737 57.368 273.745 57.568 273.745 57.808C273.745 58.304 273.673 58.752 273.529 59.152C273.401 59.536 273.193 59.872 272.905 60.16C272.681 60.4 272.385 60.6 272.017 60.76C271.649 60.92 271.209 61.048 270.697 61.144C270.185 61.24 269.577 61.288 268.873 61.288C268.057 61.288 267.257 61.128 266.473 60.808C265.705 60.488 265.009 60.048 264.385 59.488C263.761 58.928 263.265 58.272 262.897 57.52C262.545 56.768 262.369 55.968 262.369 55.12V54.856C262.369 53.432 262.673 52.192 263.281 51.136C263.889 50.08 264.729 49.264 265.801 48.688C266.873 48.096 268.113 47.8 269.521 47.8ZM197.568 76.8C198.128 76.8 198.632 76.848 199.08 76.944C199.544 77.024 199.936 77.136 200.256 77.28C200.592 77.424 200.848 77.592 201.024 77.784C201.248 77.992 201.4 78.232 201.48 78.504C201.576 78.76 201.624 79.136 201.624 79.632C201.624 80 201.592 80.344 201.528 80.664C201.48 80.968 201.392 81.288 201.264 81.624H201.12C200.512 81.064 199.936 80.68 199.392 80.472C198.848 80.248 198.176 80.136 197.376 80.136C196.64 80.136 195.992 80.312 195.432 80.664C194.872 81.016 194.432 81.504 194.112 82.128C193.808 82.736 193.656 83.44 193.656 84.24V84.48C193.656 84.848 193.696 85.224 193.776 85.608C193.872 85.992 194.04 86.368 194.28 86.736C194.664 86.88 195.064 86.984 195.48 87.048C195.912 87.112 196.392 87.144 196.92 87.144C197.608 87.144 198.216 87.096 198.744 87C199.288 86.888 199.784 86.728 200.232 86.52C200.696 86.296 201.136 86.032 201.552 85.728H201.696C201.728 85.888 201.752 86.048 201.768 86.208C201.784 86.368 201.792 86.568 201.792 86.808C201.792 87.304 201.72 87.752 201.576 88.152C201.448 88.536 201.24 88.872 200.952 89.16C200.728 89.4 200.432 89.6 200.064 89.76C199.696 89.92 199.256 90.048 198.744 90.144C198.232 90.24 197.624 90.288 196.92 90.288C196.104 90.288 195.304 90.128 194.52 89.808C193.752 89.488 193.056 89.048 192.432 88.488C191.808 87.928 191.312 87.272 190.944 86.52C190.592 85.768 190.416 84.968 190.416 84.12V83.856C190.416 82.432 190.72 81.192 191.328 80.136C191.936 79.08 192.776 78.264 193.848 77.688C194.92 77.096 196.16 76.8 197.568 76.8ZM210.663 76.8C211.463 76.8 212.215 76.952 212.919 77.256C213.639 77.544 214.271 77.984 214.815 78.576C215.375 79.168 215.815 79.912 216.135 80.808C216.455 81.688 216.615 82.728 216.615 83.928V84.24C216.615 85.44 216.351 86.496 215.823 87.408C215.311 88.32 214.599 89.032 213.687 89.544C212.775 90.04 211.711 90.288 210.495 90.288C209.679 90.288 208.911 90.168 208.191 89.928C207.487 89.672 206.863 89.296 206.319 88.8C205.775 88.304 205.343 87.672 205.023 86.904C204.719 86.136 204.567 85.24 204.567 84.216V83.904C204.567 82.48 204.823 81.24 205.335 80.184C205.863 79.112 206.583 78.28 207.495 77.688C208.407 77.096 209.463 76.8 210.663 76.8ZM211.071 79.848C210.319 79.848 209.695 80.008 209.199 80.328C208.703 80.632 208.327 81.104 208.071 81.744C207.831 82.368 207.711 83.168 207.711 84.144V84.312C207.711 84.84 207.751 85.336 207.831 85.8C207.911 86.264 208.039 86.688 208.215 87.072C208.487 87.136 208.759 87.184 209.031 87.216C209.303 87.232 209.631 87.24 210.015 87.24C210.799 87.24 211.439 87.128 211.935 86.904C212.447 86.68 212.831 86.328 213.087 85.848C213.343 85.352 213.471 84.736 213.471 84V83.832C213.471 83.064 213.415 82.368 213.303 81.744C213.191 81.12 213.015 80.552 212.775 80.04C212.551 79.96 212.303 79.912 212.031 79.896C211.775 79.864 211.455 79.848 211.071 79.848ZM230.861 90C230.637 90.048 230.429 90.08 230.237 90.096C230.045 90.112 229.837 90.12 229.613 90.12C229.005 90.12 228.485 90.032 228.053 89.856C227.637 89.68 227.317 89.36 227.093 88.896C226.885 88.416 226.781 87.752 226.781 86.904C226.781 86.28 226.813 85.656 226.877 85.032C226.941 84.392 227.021 83.744 227.117 83.088C227.229 82.416 227.349 81.712 227.477 80.976C227.349 80.784 227.205 80.64 227.045 80.544C226.901 80.448 226.733 80.4 226.541 80.4C226.157 80.4 225.773 80.504 225.389 80.712C225.021 80.92 224.653 81.256 224.285 81.72C223.933 82.184 223.581 82.8 223.229 83.568C222.893 84.336 222.565 85.288 222.245 86.424V80.976H222.869C223.189 80.176 223.597 79.464 224.093 78.84C224.589 78.216 225.149 77.72 225.773 77.352C226.397 76.984 227.037 76.8 227.693 76.8C228.077 76.8 228.429 76.92 228.749 77.16C229.069 77.384 229.349 77.688 229.589 78.072C229.829 78.456 230.021 78.88 230.165 79.344C230.309 79.808 230.381 80.272 230.381 80.736C230.381 81.344 230.381 81.96 230.381 82.584C230.381 83.208 230.381 83.832 230.381 84.456C230.381 85.064 230.381 85.68 230.381 86.304C230.381 87.04 230.413 87.672 230.477 88.2C230.541 88.728 230.669 89.328 230.861 90ZM222.725 90.024C222.613 90.04 222.501 90.048 222.389 90.048C222.293 90.064 222.197 90.072 222.101 90.072C222.005 90.072 221.901 90.072 221.789 90.072C221.357 90.072 220.989 90.032 220.685 89.952C220.381 89.856 220.141 89.72 219.965 89.544C219.789 89.368 219.661 89.16 219.581 88.92C219.517 88.68 219.485 88.408 219.485 88.104C219.485 87.304 219.485 86.536 219.485 85.8C219.485 85.048 219.485 84.32 219.485 83.616C219.485 82.896 219.485 82.192 219.485 81.504C219.485 80.8 219.485 80.104 219.485 79.416C219.485 78.984 219.453 78.56 219.389 78.144C219.325 77.728 219.205 77.376 219.029 77.088C219.157 77.056 219.269 77.032 219.365 77.016C219.477 77 219.589 76.984 219.701 76.968C219.813 76.952 219.917 76.944 220.013 76.944C220.541 76.944 221.013 77.064 221.429 77.304C221.845 77.528 222.165 77.92 222.389 78.48C222.613 79.04 222.725 79.824 222.725 80.832C222.725 81.872 222.725 82.936 222.725 84.024C222.725 85.096 222.725 86.144 222.725 87.168C222.725 88.176 222.725 89.128 222.725 90.024ZM245.252 90C245.028 90.048 244.82 90.08 244.628 90.096C244.436 90.112 244.228 90.12 244.004 90.12C243.396 90.12 242.876 90.032 242.444 89.856C242.028 89.68 241.708 89.36 241.484 88.896C241.276 88.416 241.172 87.752 241.172 86.904C241.172 86.28 241.204 85.656 241.268 85.032C241.332 84.392 241.412 83.744 241.508 83.088C241.62 82.416 241.74 81.712 241.868 80.976C241.74 80.784 241.596 80.64 241.436 80.544C241.292 80.448 241.124 80.4 240.932 80.4C240.548 80.4 240.164 80.504 239.78 80.712C239.412 80.92 239.044 81.256 238.676 81.72C238.324 82.184 237.972 82.8 237.62 83.568C237.284 84.336 236.956 85.288 236.636 86.424V80.976H237.26C237.58 80.176 237.988 79.464 238.484 78.84C238.98 78.216 239.54 77.72 240.164 77.352C240.788 76.984 241.428 76.8 242.084 76.8C242.468 76.8 242.82 76.92 243.14 77.16C243.46 77.384 243.74 77.688 243.98 78.072C244.22 78.456 244.412 78.88 244.556 79.344C244.7 79.808 244.772 80.272 244.772 80.736C244.772 81.344 244.772 81.96 244.772 82.584C244.772 83.208 244.772 83.832 244.772 84.456C244.772 85.064 244.772 85.68 244.772 86.304C244.772 87.04 244.804 87.672 244.868 88.2C244.932 88.728 245.06 89.328 245.252 90ZM237.116 90.024C237.004 90.04 236.892 90.048 236.78 90.048C236.684 90.064 236.588 90.072 236.492 90.072C236.396 90.072 236.292 90.072 236.18 90.072C235.748 90.072 235.38 90.032 235.076 89.952C234.772 89.856 234.532 89.72 234.356 89.544C234.18 89.368 234.052 89.16 233.972 88.92C233.908 88.68 233.876 88.408 233.876 88.104C233.876 87.304 233.876 86.536 233.876 85.8C233.876 85.048 233.876 84.32 233.876 83.616C233.876 82.896 233.876 82.192 233.876 81.504C233.876 80.8 233.876 80.104 233.876 79.416C233.876 78.984 233.844 78.56 233.78 78.144C233.716 77.728 233.596 77.376 233.42 77.088C233.548 77.056 233.66 77.032 233.756 77.016C233.868 77 233.98 76.984 234.092 76.968C234.204 76.952 234.308 76.944 234.404 76.944C234.932 76.944 235.404 77.064 235.82 77.304C236.236 77.528 236.556 77.92 236.78 78.48C237.004 79.04 237.116 79.824 237.116 80.832C237.116 81.872 237.116 82.936 237.116 84.024C237.116 85.096 237.116 86.144 237.116 87.168C237.116 88.176 237.116 89.128 237.116 90.024ZM254.363 76.728C255.483 76.728 256.435 76.96 257.219 77.424C258.003 77.872 258.603 78.504 259.019 79.32C259.451 80.12 259.667 81.048 259.667 82.104V82.224C259.667 82.832 259.627 83.296 259.547 83.616C259.483 83.936 259.387 84.152 259.259 84.264C259.131 84.36 258.987 84.408 258.827 84.408H253.475C252.995 84.408 252.563 84.344 252.179 84.216C251.811 84.088 251.507 83.92 251.267 83.712L250.787 83.952L250.883 82.464H256.403C256.435 82.352 256.451 82.232 256.451 82.104C256.467 81.96 256.475 81.832 256.475 81.72C256.475 81.336 256.435 80.976 256.355 80.64C256.275 80.288 256.131 79.976 255.923 79.704C255.731 79.624 255.547 79.568 255.371 79.536C255.195 79.504 254.939 79.488 254.603 79.488C253.563 79.488 252.723 79.896 252.083 80.712C251.443 81.528 251.123 82.768 251.123 84.432V84.552C251.123 85.016 251.155 85.44 251.219 85.824C251.299 86.192 251.411 86.528 251.555 86.832C251.939 87.024 252.371 87.168 252.851 87.264C253.347 87.344 253.947 87.384 254.651 87.384C255.179 87.384 255.691 87.352 256.187 87.288C256.683 87.208 257.163 87.088 257.627 86.928C258.107 86.768 258.563 86.56 258.995 86.304H259.139C259.171 86.448 259.195 86.592 259.211 86.736C259.227 86.88 259.234 87.024 259.234 87.168C259.234 87.664 259.163 88.08 259.019 88.416C258.891 88.752 258.699 89.048 258.443 89.304C258.187 89.56 257.859 89.768 257.459 89.928C257.059 90.072 256.619 90.176 256.139 90.24C255.659 90.32 255.155 90.36 254.627 90.36C253.635 90.36 252.723 90.208 251.891 89.904C251.075 89.6 250.363 89.168 249.755 88.608C249.163 88.048 248.699 87.368 248.363 86.568C248.043 85.768 247.883 84.872 247.883 83.88V83.736C247.883 82.712 248.043 81.776 248.363 80.928C248.683 80.064 249.131 79.32 249.707 78.696C250.299 78.072 250.987 77.592 251.771 77.256C252.571 76.904 253.435 76.728 254.363 76.728ZM269.521 76.8C270.081 76.8 270.585 76.848 271.033 76.944C271.497 77.024 271.889 77.136 272.209 77.28C272.545 77.424 272.801 77.592 272.977 77.784C273.201 77.992 273.353 78.232 273.433 78.504C273.529 78.76 273.577 79.136 273.577 79.632C273.577 80 273.545 80.344 273.481 80.664C273.433 80.968 273.345 81.288 273.217 81.624H273.073C272.465 81.064 271.889 80.68 271.345 80.472C270.801 80.248 270.129 80.136 269.329 80.136C268.593 80.136 267.945 80.312 267.385 80.664C266.825 81.016 266.385 81.504 266.065 82.128C265.761 82.736 265.609 83.44 265.609 84.24V84.48C265.609 84.848 265.649 85.224 265.729 85.608C265.825 85.992 265.993 86.368 266.233 86.736C266.617 86.88 267.017 86.984 267.433 87.048C267.865 87.112 268.345 87.144 268.873 87.144C269.561 87.144 270.169 87.096 270.697 87C271.241 86.888 271.737 86.728 272.185 86.52C272.649 86.296 273.089 86.032 273.505 85.728H273.649C273.681 85.888 273.705 86.048 273.721 86.208C273.737 86.368 273.745 86.568 273.745 86.808C273.745 87.304 273.673 87.752 273.529 88.152C273.401 88.536 273.193 88.872 272.905 89.16C272.681 89.4 272.385 89.6 272.017 89.76C271.649 89.92 271.209 90.048 270.697 90.144C270.185 90.24 269.577 90.288 268.873 90.288C268.057 90.288 267.257 90.128 266.473 89.808C265.705 89.488 265.009 89.048 264.385 88.488C263.761 87.928 263.265 87.272 262.897 86.52C262.545 85.768 262.369 84.968 262.369 84.12V83.856C262.369 82.432 262.673 81.192 263.281 80.136C263.889 79.08 264.729 78.264 265.801 77.688C266.873 77.096 268.113 76.8 269.521 76.8ZM276.472 77.088H286.888C287.496 77.088 287.912 77.232 288.136 77.52C288.376 77.792 288.496 78.288 288.496 79.008C288.496 79.168 288.488 79.328 288.472 79.488C288.456 79.648 288.44 79.8 288.424 79.944C288.408 80.072 288.384 80.2 288.352 80.328H280.288C279.536 80.328 278.904 80.28 278.392 80.184C277.896 80.088 277.496 79.936 277.192 79.728C276.904 79.504 276.696 79.224 276.568 78.888C276.456 78.552 276.4 78.152 276.4 77.688C276.4 77.608 276.4 77.536 276.4 77.472C276.416 77.392 276.424 77.32 276.424 77.256C276.44 77.192 276.456 77.136 276.472 77.088ZM288.352 86.232C288.384 86.36 288.408 86.504 288.424 86.664C288.44 86.808 288.448 86.944 288.448 87.072C288.448 87.616 288.376 88.08 288.232 88.464C288.088 88.848 287.872 89.184 287.584 89.472C287.456 89.6 287.296 89.72 287.104 89.832C286.928 89.928 286.712 90.008 286.456 90.072C286.216 90.152 285.944 90.208 285.64 90.24C285.336 90.288 284.992 90.312 284.608 90.312C283.888 90.312 283.224 90.208 282.616 90C282.008 89.808 281.48 89.528 281.032 89.16C280.584 88.792 280.24 88.36 280 87.864C279.76 87.352 279.64 86.784 279.64 86.16C279.64 85.264 279.64 84.368 279.64 83.472C279.64 82.56 279.64 81.664 279.64 80.784C279.64 79.888 279.64 78.992 279.64 78.096C279.64 77.184 279.64 76.288 279.64 75.408C279.64 75.024 279.616 74.648 279.568 74.28C279.536 73.912 279.456 73.552 279.328 73.2C279.584 73.12 279.84 73.064 280.096 73.032C280.352 73 280.6 72.984 280.84 72.984C281.224 72.984 281.568 73.072 281.872 73.248C282.176 73.408 282.416 73.664 282.592 74.016C282.784 74.352 282.88 74.784 282.88 75.312C282.88 76.208 282.88 77.088 282.88 77.952C282.88 78.816 282.88 79.688 282.88 80.568C282.88 81.448 282.88 82.328 282.88 83.208C282.88 84.072 282.88 84.944 282.88 85.824C282.88 86.016 282.888 86.192 282.904 86.352C282.92 86.512 282.952 86.664 283 86.808C283.24 86.904 283.472 86.976 283.696 87.024C283.936 87.056 284.2 87.072 284.488 87.072C285.016 87.072 285.488 87.048 285.904 87C286.32 86.952 286.704 86.864 287.056 86.736C287.424 86.608 287.808 86.44 288.208 86.232H288.352ZM296.502 87.024L296.694 86.616C296.454 86.328 296.27 85.968 296.142 85.536C296.03 85.104 295.974 84.584 295.974 83.976C295.974 83.656 295.974 83.352 295.974 83.064C295.974 82.76 295.974 82.456 295.974 82.152C295.974 81.832 295.974 81.528 295.974 81.24C295.974 80.936 295.974 80.632 295.974 80.328C295.974 80.024 295.974 79.728 295.974 79.44L295.878 79.344C295.318 79.632 294.822 79.856 294.39 80.016C293.974 80.176 293.622 80.288 293.334 80.352C293.046 80.416 292.806 80.448 292.614 80.448C292.374 80.448 292.15 80.384 291.942 80.256C291.734 80.112 291.574 79.896 291.462 79.608C291.35 79.304 291.294 78.912 291.294 78.432C291.294 78.192 291.31 77.952 291.342 77.712C291.374 77.472 291.422 77.264 291.486 77.088C291.886 77.04 292.358 77 292.902 76.968C293.462 76.936 294.014 76.912 294.558 76.896C295.118 76.864 295.59 76.848 295.974 76.848C296.726 76.848 297.334 76.92 297.798 77.064C298.278 77.192 298.63 77.424 298.854 77.76C299.094 78.096 299.214 78.584 299.214 79.224C299.214 79.784 299.214 80.336 299.214 80.88C299.214 81.408 299.214 81.952 299.214 82.512C299.214 83.056 299.214 83.608 299.214 84.168C299.214 84.728 299.214 85.28 299.214 85.824C299.214 86.368 299.214 86.92 299.214 87.48L296.502 87.024ZM291.342 86.76H298.494C299.678 86.76 300.614 86.856 301.302 87.048C302.006 87.24 302.518 87.512 302.838 87.864C303.158 88.216 303.318 88.624 303.318 89.088C303.318 89.2 303.31 89.304 303.294 89.4C303.294 89.496 303.278 89.6 303.246 89.712C303.23 89.808 303.206 89.904 303.174 90H293.574C292.95 90 292.47 89.928 292.134 89.784C291.798 89.64 291.566 89.4 291.438 89.064C291.31 88.728 291.246 88.272 291.246 87.696C291.246 87.568 291.246 87.456 291.246 87.36C291.262 87.248 291.278 87.144 291.294 87.048C291.31 86.952 291.326 86.856 291.342 86.76ZM295.35 71.928C295.478 71.88 295.63 71.832 295.806 71.784C295.982 71.736 296.158 71.696 296.334 71.664C296.526 71.632 296.718 71.608 296.91 71.592C297.118 71.576 297.318 71.568 297.51 71.568C298.214 71.568 298.79 71.688 299.238 71.928C299.686 72.152 299.91 72.568 299.91 73.176V74.832C299.782 74.88 299.638 74.928 299.478 74.976C299.334 75.024 299.174 75.064 298.998 75.096C298.838 75.128 298.67 75.152 298.494 75.168C298.334 75.184 298.166 75.192 297.99 75.192C297.222 75.192 296.59 75.016 296.094 74.664C295.598 74.312 295.35 73.848 295.35 73.272V71.928ZM311.397 76.8C312.197 76.8 312.949 76.952 313.653 77.256C314.373 77.544 315.005 77.984 315.549 78.576C316.109 79.168 316.549 79.912 316.869 80.808C317.189 81.688 317.349 82.728 317.349 83.928V84.24C317.349 85.44 317.085 86.496 316.557 87.408C316.045 88.32 315.333 89.032 314.421 89.544C313.509 90.04 312.445 90.288 311.229 90.288C310.413 90.288 309.645 90.168 308.925 89.928C308.221 89.672 307.597 89.296 307.053 88.8C306.509 88.304 306.077 87.672 305.757 86.904C305.453 86.136 305.301 85.24 305.301 84.216V83.904C305.301 82.48 305.557 81.24 306.069 80.184C306.597 79.112 307.317 78.28 308.229 77.688C309.141 77.096 310.197 76.8 311.397 76.8ZM311.805 79.848C311.053 79.848 310.429 80.008 309.933 80.328C309.437 80.632 309.061 81.104 308.805 81.744C308.565 82.368 308.445 83.168 308.445 84.144V84.312C308.445 84.84 308.485 85.336 308.565 85.8C308.645 86.264 308.773 86.688 308.949 87.072C309.221 87.136 309.493 87.184 309.765 87.216C310.037 87.232 310.365 87.24 310.749 87.24C311.533 87.24 312.173 87.128 312.669 86.904C313.181 86.68 313.565 86.328 313.821 85.848C314.077 85.352 314.205 84.736 314.205 84V83.832C314.205 83.064 314.149 82.368 314.037 81.744C313.925 81.12 313.749 80.552 313.509 80.04C313.285 79.96 313.037 79.912 312.765 79.896C312.509 79.864 312.189 79.848 311.805 79.848ZM331.596 90C331.372 90.048 331.164 90.08 330.972 90.096C330.78 90.112 330.572 90.12 330.348 90.12C329.74 90.12 329.22 90.032 328.788 89.856C328.372 89.68 328.052 89.36 327.828 88.896C327.62 88.416 327.516 87.752 327.516 86.904C327.516 86.28 327.548 85.656 327.612 85.032C327.676 84.392 327.756 83.744 327.852 83.088C327.964 82.416 328.084 81.712 328.212 80.976C328.084 80.784 327.94 80.64 327.78 80.544C327.636 80.448 327.468 80.4 327.276 80.4C326.892 80.4 326.508 80.504 326.124 80.712C325.756 80.92 325.388 81.256 325.02 81.72C324.668 82.184 324.316 82.8 323.964 83.568C323.628 84.336 323.3 85.288 322.98 86.424V80.976H323.604C323.924 80.176 324.332 79.464 324.828 78.84C325.324 78.216 325.884 77.72 326.508 77.352C327.132 76.984 327.772 76.8 328.428 76.8C328.812 76.8 329.164 76.92 329.484 77.16C329.804 77.384 330.084 77.688 330.324 78.072C330.564 78.456 330.756 78.88 330.9 79.344C331.044 79.808 331.116 80.272 331.116 80.736C331.116 81.344 331.116 81.96 331.116 82.584C331.116 83.208 331.116 83.832 331.116 84.456C331.116 85.064 331.116 85.68 331.116 86.304C331.116 87.04 331.148 87.672 331.212 88.2C331.276 88.728 331.404 89.328 331.596 90ZM323.46 90.024C323.348 90.04 323.236 90.048 323.124 90.048C323.028 90.064 322.932 90.072 322.836 90.072C322.74 90.072 322.636 90.072 322.524 90.072C322.092 90.072 321.724 90.032 321.42 89.952C321.116 89.856 320.876 89.72 320.7 89.544C320.524 89.368 320.396 89.16 320.316 88.92C320.252 88.68 320.22 88.408 320.22 88.104C320.22 87.304 320.22 86.536 320.22 85.8C320.22 85.048 320.22 84.32 320.22 83.616C320.22 82.896 320.22 82.192 320.22 81.504C320.22 80.8 320.22 80.104 320.22 79.416C320.22 78.984 320.188 78.56 320.124 78.144C320.06 77.728 319.94 77.376 319.764 77.088C319.892 77.056 320.004 77.032 320.1 77.016C320.212 77 320.324 76.984 320.436 76.968C320.548 76.952 320.652 76.944 320.748 76.944C321.276 76.944 321.748 77.064 322.164 77.304C322.58 77.528 322.9 77.92 323.124 78.48C323.348 79.04 323.46 79.824 323.46 80.832C323.46 81.872 323.46 82.936 323.46 84.024C323.46 85.096 323.46 86.144 323.46 87.168C323.46 88.176 323.46 89.128 323.46 90.024Z" fill="white"/>
<defs>
<filter id="filter0_f_174_1152" x="36.9247" y="14.9344" width="126.41" height="106.3" filterUnits="userSpaceOnUse" color-interpolation-filters="sRGB">
<feFlood flood-opacity="0" result="BackgroundImageFix"/>
<feBlend mode="normal" in="SourceGraphic" in2="BackgroundImageFix" result="shape"/>
<feGaussianBlur stdDeviation="7.77909" result="effect1_foregroundBlur_174_1152"/>
</filter>
<linearGradient id="paint0_linear_174_1152" x1="93.3951" y1="83.1423" x2="98.6621" y2="54.7077" gradientUnits="userSpaceOnUse">
<stop offset="0.04" stop-color="#B5B7C9"/>
<stop offset="0.41" stop-color="#545A87"/>
</linearGradient>
<radialGradient id="paint1_radial_174_1152" cx="0" cy="0" r="1" gradientUnits="userSpaceOnUse" gradientTransform="translate(98.4307 69.37) rotate(-66.6537) scale(14.8306 20.6093)">
<stop stop-color="#FDEFC5"/>
<stop offset="0.8" stop-color="#3C3952"/>
</radialGradient>
</defs>
</svg>
