<svg width="309" height="137" viewBox="0 0 309 137" fill="none" xmlns="http://www.w3.org/2000/svg">
<g filter="url(#filter0_f_163_748)">
<path d="M68.7925 60.8022C68.7925 72.4709 92.1298 84.3826 92.1298 84.3826C92.1298 84.3826 115.467 72.4709 115.467 60.8022" stroke="#F6CABC" stroke-width="48.6193" stroke-linecap="round"/>
</g>
<path d="M68.7925 60.8022C68.7925 72.4709 92.1298 84.3826 92.1298 84.3826C92.1298 84.3826 115.467 72.4709 115.467 60.8022" stroke="#F9DDB5" stroke-width="48.6193" stroke-linecap="round"/>
<path d="M227.92 73.9905C226.517 73.7454 225.079 73.5004 223.606 73.2601C223.56 73.6829 223.478 74.0962 223.396 74.5142C237.132 76.7965 245.046 78.9731 244.286 80.6067C243.515 82.274 233.859 83.0908 218.545 83.0908C200.109 83.0908 173.468 81.9088 144.208 79.6025C112.797 77.1232 85.3601 73.8992 68.3745 70.9106C56.4039 68.806 49.6237 66.8216 50.3367 65.3033C51.0265 63.8138 58.7886 63.0066 71.3204 62.848C71.3671 62.7808 71.4022 62.7183 71.4489 62.6558C71.6243 62.406 71.8113 62.1609 71.9984 61.9159C52.9086 62.1898 41.4289 63.612 40.3885 65.8462C39.3014 68.1814 49.5535 71.4151 68.5264 74.7208C68.5849 74.7304 68.655 74.74 68.7135 74.7544C88.3293 78.1611 115.029 81.2938 143.927 83.5761C169.575 85.5989 194.218 86.7377 214.336 86.8386C216.955 86.853 219.491 86.8482 221.935 86.829C242.533 86.6464 254.982 85.2001 256.07 82.8698C257.157 80.5298 246.905 77.2962 227.92 73.9905Z" fill="url(#paint0_linear_163_748)"/>
<path d="M223.712 71.5304V71.6217C223.712 71.9052 223.701 72.1839 223.689 72.4674C225.384 72.7412 227.044 73.0199 228.645 73.3034C242.884 75.7827 259.519 79.4824 257.871 83.0092C256.222 86.5359 237.436 87.4392 221.982 87.5786C220.462 87.593 218.908 87.5978 217.318 87.5978C216.009 87.5978 214.676 87.593 213.32 87.5834C193.283 87.444 168.909 86.3101 143.577 84.3113C115.018 82.0578 88.5872 78.9731 68.948 75.6097C68.5622 75.5425 68.1881 75.48 67.8141 75.4127C53.5756 72.9334 36.9407 69.2337 38.589 65.7069C40.1671 62.3195 57.5385 61.3538 72.6187 61.1568C72.9343 60.7772 73.2733 60.3976 73.6357 60.0228C48.0345 60.2294 31.0255 62.1658 29.3772 65.6877C27.6237 69.4451 43.7092 74.1779 70.1521 78.4878C89.2653 81.6014 113.803 84.4939 140.924 86.6368C166.244 88.6356 190.068 89.6783 209.86 89.8224C240.569 90.0435 261.576 88.0927 263.412 84.1575C265.13 80.4482 249.512 75.7923 223.712 71.5304Z" fill="url(#paint1_radial_163_748)"/>
<path d="M187.14 61C187.607 61 188.027 61.04 188.4 61.12C188.787 61.1867 189.113 61.28 189.38 61.4C189.66 61.52 189.873 61.66 190.02 61.82C190.207 61.9933 190.333 62.1933 190.4 62.42C190.48 62.6333 190.52 62.9467 190.52 63.36C190.52 63.6667 190.493 63.9533 190.44 64.22C190.4 64.4733 190.327 64.74 190.22 65.02H190.1C189.593 64.5533 189.113 64.2333 188.66 64.06C188.207 63.8733 187.647 63.78 186.98 63.78C186.367 63.78 185.827 63.9267 185.36 64.22C184.893 64.5133 184.527 64.92 184.26 65.44C184.007 65.9467 183.88 66.5333 183.88 67.2V67.4C183.88 67.7067 183.913 68.02 183.98 68.34C184.06 68.66 184.2 68.9733 184.4 69.28C184.72 69.4 185.053 69.4867 185.4 69.54C185.76 69.5933 186.16 69.62 186.6 69.62C187.173 69.62 187.68 69.58 188.12 69.5C188.573 69.4067 188.987 69.2733 189.36 69.1C189.747 68.9133 190.113 68.6933 190.46 68.44H190.58C190.607 68.5733 190.627 68.7067 190.64 68.84C190.653 68.9733 190.66 69.14 190.66 69.34C190.66 69.7533 190.6 70.1267 190.48 70.46C190.373 70.78 190.2 71.06 189.96 71.3C189.773 71.5 189.527 71.6667 189.22 71.8C188.913 71.9333 188.547 72.04 188.12 72.12C187.693 72.2 187.187 72.24 186.6 72.24C185.92 72.24 185.253 72.1067 184.6 71.84C183.96 71.5733 183.38 71.2067 182.86 70.74C182.34 70.2733 181.927 69.7267 181.62 69.1C181.327 68.4733 181.18 67.8067 181.18 67.1V66.88C181.18 65.6933 181.433 64.66 181.94 63.78C182.447 62.9 183.147 62.22 184.04 61.74C184.933 61.2467 185.967 61 187.14 61ZM198.052 61C198.719 61 199.346 61.1267 199.932 61.38C200.532 61.62 201.059 61.9867 201.512 62.48C201.979 62.9733 202.346 63.5933 202.612 64.34C202.879 65.0733 203.012 65.94 203.012 66.94V67.2C203.012 68.2 202.792 69.08 202.352 69.84C201.926 70.6 201.332 71.1933 200.572 71.62C199.812 72.0333 198.926 72.24 197.912 72.24C197.232 72.24 196.592 72.14 195.992 71.94C195.406 71.7267 194.886 71.4133 194.432 71C193.979 70.5867 193.619 70.06 193.352 69.42C193.099 68.78 192.972 68.0333 192.972 67.18V66.92C192.972 65.7333 193.186 64.7 193.612 63.82C194.052 62.9267 194.652 62.2333 195.412 61.74C196.172 61.2467 197.052 61 198.052 61ZM198.392 63.54C197.766 63.54 197.246 63.6733 196.832 63.94C196.419 64.1933 196.106 64.5867 195.892 65.12C195.692 65.64 195.592 66.3067 195.592 67.12V67.26C195.592 67.7 195.626 68.1133 195.692 68.5C195.759 68.8867 195.866 69.24 196.012 69.56C196.239 69.6133 196.466 69.6533 196.692 69.68C196.919 69.6933 197.192 69.7 197.512 69.7C198.166 69.7 198.699 69.6067 199.112 69.42C199.539 69.2333 199.859 68.94 200.072 68.54C200.286 68.1267 200.392 67.6133 200.392 67V66.86C200.392 66.22 200.346 65.64 200.252 65.12C200.159 64.6 200.012 64.1267 199.812 63.7C199.626 63.6333 199.419 63.5933 199.192 63.58C198.979 63.5533 198.712 63.54 198.392 63.54ZM209.984 69.52C210.491 69.52 210.938 69.48 211.324 69.4C211.711 69.32 212.031 69.22 212.284 69.1C212.324 68.94 212.311 68.7733 212.244 68.6C212.178 68.4133 212.044 68.2467 211.844 68.1C211.644 67.9533 211.351 67.84 210.964 67.76L208.704 67.24C207.958 67.0667 207.351 66.8733 206.884 66.66C206.431 66.4333 206.098 66.16 205.884 65.84C205.684 65.5067 205.584 65.1 205.584 64.62C205.584 64.0333 205.738 63.52 206.044 63.08C206.364 62.6267 206.791 62.2467 207.324 61.94C207.858 61.6333 208.464 61.4 209.144 61.24C209.824 61.08 210.524 61 211.244 61C211.724 61 212.124 61.02 212.444 61.06C212.778 61.0867 213.051 61.14 213.264 61.22C213.478 61.2867 213.638 61.38 213.744 61.5C213.891 61.62 214.004 61.78 214.084 61.98C214.164 62.1667 214.224 62.3933 214.264 62.66C214.318 62.9267 214.344 63.2267 214.344 63.56C214.344 63.6933 214.338 63.82 214.324 63.94C214.311 64.0467 214.291 64.16 214.264 64.28H214.144C213.891 64.1467 213.624 64.04 213.344 63.96C213.078 63.88 212.778 63.82 212.444 63.78C212.124 63.7267 211.731 63.7 211.264 63.7C210.598 63.7 210.044 63.7467 209.604 63.84C209.164 63.92 208.831 64.0333 208.604 64.18C208.391 64.3267 208.284 64.5067 208.284 64.72C208.284 64.8533 208.331 64.9733 208.424 65.08C208.518 65.1867 208.684 65.2867 208.924 65.38C209.178 65.4733 209.538 65.5667 210.004 65.66L211.884 66.06C212.591 66.1933 213.164 66.3933 213.604 66.66C214.044 66.9267 214.358 67.24 214.544 67.6C214.744 67.9467 214.844 68.34 214.844 68.78C214.844 69.5667 214.664 70.22 214.304 70.74C213.944 71.2467 213.391 71.6267 212.644 71.88C211.898 72.12 210.938 72.24 209.764 72.24C209.191 72.24 208.678 72.2133 208.224 72.16C207.784 72.12 207.391 72.06 207.044 71.98C206.711 71.9 206.431 71.8067 206.204 71.7C205.978 71.5933 205.811 71.4933 205.704 71.4C205.518 71.1867 205.364 70.9333 205.244 70.64C205.138 70.3467 205.084 69.9267 205.084 69.38C205.084 69.18 205.091 69 205.104 68.84C205.131 68.68 205.158 68.54 205.184 68.42H205.304C205.651 68.62 205.971 68.7933 206.264 68.94C206.571 69.0733 206.891 69.1867 207.224 69.28C207.558 69.36 207.944 69.42 208.384 69.46C208.838 69.5 209.371 69.52 209.984 69.52ZM227.537 72C227.417 72.0267 227.303 72.0467 227.197 72.06C227.09 72.0733 226.977 72.08 226.857 72.08C226.75 72.0933 226.63 72.1 226.497 72.1C226.003 72.1 225.603 72.0267 225.297 71.88C224.99 71.7333 224.77 71.4667 224.637 71.08C224.503 70.6933 224.437 70.1467 224.437 69.44C224.437 69.12 224.443 68.8 224.457 68.48C224.47 68.1467 224.483 67.8067 224.497 67.46C224.51 67.1133 224.537 66.76 224.577 66.4C224.617 66.0267 224.657 65.64 224.697 65.24C224.737 64.84 224.79 64.4267 224.857 64C224.803 63.9333 224.737 63.8867 224.657 63.86C224.577 63.82 224.49 63.8 224.397 63.8C224.143 63.8 223.903 63.8867 223.677 64.06C223.45 64.22 223.243 64.46 223.057 64.78C222.87 65.0867 222.71 65.46 222.577 65.9V63.16H222.897C223.097 62.7467 223.323 62.38 223.577 62.06C223.83 61.74 224.097 61.4867 224.377 61.3C224.67 61.1 224.957 61 225.237 61C225.477 61 225.703 61.0867 225.917 61.26C226.143 61.42 226.35 61.6267 226.537 61.88C226.723 62.12 226.87 62.38 226.977 62.66C227.097 62.94 227.157 63.1933 227.157 63.42C227.157 63.8867 227.157 64.3533 227.157 64.82C227.157 65.2733 227.157 65.7267 227.157 66.18C227.157 66.6333 227.157 67.0867 227.157 67.54C227.157 67.9933 227.157 68.4533 227.157 68.92C227.157 69.5333 227.183 70.06 227.237 70.5C227.29 70.94 227.39 71.44 227.537 72ZM222.777 72C222.75 72.0133 222.717 72.02 222.677 72.02C222.637 72.0333 222.597 72.04 222.557 72.04C222.517 72.0533 222.47 72.06 222.417 72.06C222.097 72.06 221.83 71.9933 221.617 71.86C221.403 71.7133 221.243 71.4933 221.137 71.2C221.043 70.9067 220.997 70.52 220.997 70.04C220.997 69.7067 220.997 69.3733 220.997 69.04C221.01 68.6933 221.023 68.34 221.037 67.98C221.063 67.6067 221.09 67.22 221.117 66.82C221.143 66.42 221.177 65.9933 221.217 65.54C221.27 65.0867 221.317 64.6 221.357 64.08C221.317 64.0133 221.27 63.96 221.217 63.92C221.177 63.88 221.13 63.8533 221.077 63.84C221.023 63.8133 220.957 63.8 220.877 63.8C220.677 63.8 220.477 63.88 220.277 64.04C220.09 64.2 219.903 64.4333 219.717 64.74C219.53 65.0467 219.343 65.4467 219.157 65.94L219.097 63.18H219.417C219.563 62.74 219.737 62.3667 219.937 62.06C220.15 61.74 220.377 61.4933 220.617 61.32C220.857 61.1333 221.103 61.04 221.357 61.04C221.583 61.04 221.783 61.12 221.957 61.28C222.13 61.44 222.277 61.6467 222.397 61.9C222.517 62.14 222.61 62.38 222.677 62.62C222.743 62.86 222.777 63.0733 222.777 63.26C222.777 63.9933 222.777 64.7267 222.777 65.46C222.79 66.18 222.797 66.9067 222.797 67.64C222.797 68.36 222.79 69.0867 222.777 69.82C222.777 70.54 222.777 71.2667 222.777 72ZM219.337 72.02C219.27 72.0333 219.197 72.0467 219.117 72.06C219.037 72.0733 218.957 72.08 218.877 72.08C218.797 72.0933 218.71 72.1 218.617 72.1C218.523 72.1133 218.423 72.12 218.317 72.12C218.063 72.12 217.843 72.1067 217.657 72.08C217.47 72.0533 217.31 72 217.177 71.92C217.057 71.84 216.963 71.7267 216.897 71.58C216.83 71.4333 216.797 71.24 216.797 71C216.797 70.1333 216.797 69.2733 216.797 68.42C216.797 67.5533 216.797 66.6933 216.797 65.84C216.797 64.9733 216.797 64.1133 216.797 63.26C216.797 62.86 216.777 62.5067 216.737 62.2C216.71 61.88 216.65 61.5467 216.557 61.2C216.61 61.1867 216.67 61.1733 216.737 61.16C216.803 61.1467 216.863 61.14 216.917 61.14C216.983 61.1267 217.05 61.12 217.117 61.12C217.183 61.12 217.25 61.12 217.317 61.12C217.583 61.12 217.837 61.1733 218.077 61.28C218.317 61.3867 218.53 61.5467 218.717 61.76C218.917 61.96 219.07 62.22 219.177 62.54C219.283 62.86 219.337 63.24 219.337 63.68C219.337 64.6 219.337 65.5267 219.337 66.46C219.337 67.3933 219.337 68.32 219.337 69.24C219.337 70.16 219.337 71.0867 219.337 72.02ZM233.609 69.52L233.769 69.18C233.569 68.94 233.415 68.64 233.309 68.28C233.215 67.92 233.169 67.4867 233.169 66.98C233.169 66.7133 233.169 66.46 233.169 66.22C233.169 65.9667 233.169 65.7133 233.169 65.46C233.169 65.1933 233.169 64.94 233.169 64.7C233.169 64.4467 233.169 64.1933 233.169 63.94C233.169 63.6867 233.169 63.44 233.169 63.2L233.089 63.12C232.622 63.36 232.209 63.5467 231.849 63.68C231.502 63.8133 231.209 63.9067 230.969 63.96C230.729 64.0133 230.529 64.04 230.369 64.04C230.169 64.04 229.982 63.9867 229.809 63.88C229.635 63.76 229.502 63.58 229.409 63.34C229.315 63.0867 229.269 62.76 229.269 62.36C229.269 62.16 229.282 61.96 229.309 61.76C229.335 61.56 229.375 61.3867 229.429 61.24C229.762 61.2 230.155 61.1667 230.609 61.14C231.075 61.1133 231.535 61.0933 231.989 61.08C232.455 61.0533 232.849 61.04 233.169 61.04C233.795 61.04 234.302 61.1 234.689 61.22C235.089 61.3267 235.382 61.52 235.569 61.8C235.769 62.08 235.869 62.4867 235.869 63.02C235.869 63.4867 235.869 63.9467 235.869 64.4C235.869 64.84 235.869 65.2933 235.869 65.76C235.869 66.2133 235.869 66.6733 235.869 67.14C235.869 67.6067 235.869 68.0667 235.869 68.52C235.869 68.9733 235.869 69.4333 235.869 69.9L233.609 69.52ZM229.309 69.3H235.269C236.255 69.3 237.035 69.38 237.609 69.54C238.195 69.7 238.622 69.9267 238.889 70.22C239.155 70.5133 239.289 70.8533 239.289 71.24C239.289 71.3333 239.282 71.42 239.269 71.5C239.269 71.58 239.255 71.6667 239.229 71.76C239.215 71.84 239.195 71.92 239.169 72H231.169C230.649 72 230.249 71.94 229.969 71.82C229.689 71.7 229.495 71.5 229.389 71.22C229.282 70.94 229.229 70.56 229.229 70.08C229.229 69.9733 229.229 69.88 229.229 69.8C229.242 69.7067 229.255 69.62 229.269 69.54C229.282 69.46 229.295 69.38 229.309 69.3ZM232.649 56.94C232.755 56.9 232.882 56.86 233.029 56.82C233.175 56.78 233.322 56.7467 233.469 56.72C233.629 56.6933 233.789 56.6733 233.949 56.66C234.122 56.6467 234.289 56.64 234.449 56.64C235.035 56.64 235.515 56.74 235.889 56.94C236.262 57.1267 236.449 57.4733 236.449 57.98V59.36C236.342 59.4 236.222 59.44 236.089 59.48C235.969 59.52 235.835 59.5533 235.689 59.58C235.555 59.6067 235.415 59.6267 235.269 59.64C235.135 59.6533 234.995 59.66 234.849 59.66C234.209 59.66 233.682 59.5133 233.269 59.22C232.855 58.9267 232.649 58.54 232.649 58.06V56.94ZM247.101 61C247.568 61 247.988 61.04 248.361 61.12C248.748 61.1867 249.074 61.28 249.341 61.4C249.621 61.52 249.834 61.66 249.981 61.82C250.168 61.9933 250.294 62.1933 250.361 62.42C250.441 62.6333 250.481 62.9467 250.481 63.36C250.481 63.6667 250.454 63.9533 250.401 64.22C250.361 64.4733 250.288 64.74 250.181 65.02H250.061C249.554 64.5533 249.074 64.2333 248.621 64.06C248.168 63.8733 247.608 63.78 246.941 63.78C246.328 63.78 245.788 63.9267 245.321 64.22C244.854 64.5133 244.488 64.92 244.221 65.44C243.968 65.9467 243.841 66.5333 243.841 67.2V67.4C243.841 67.7067 243.874 68.02 243.941 68.34C244.021 68.66 244.161 68.9733 244.361 69.28C244.681 69.4 245.014 69.4867 245.361 69.54C245.721 69.5933 246.121 69.62 246.561 69.62C247.134 69.62 247.641 69.58 248.081 69.5C248.534 69.4067 248.948 69.2733 249.321 69.1C249.708 68.9133 250.074 68.6933 250.421 68.44H250.541C250.568 68.5733 250.588 68.7067 250.601 68.84C250.614 68.9733 250.621 69.14 250.621 69.34C250.621 69.7533 250.561 70.1267 250.441 70.46C250.334 70.78 250.161 71.06 249.921 71.3C249.734 71.5 249.488 71.6667 249.181 71.8C248.874 71.9333 248.508 72.04 248.081 72.12C247.654 72.2 247.148 72.24 246.561 72.24C245.881 72.24 245.214 72.1067 244.561 71.84C243.921 71.5733 243.341 71.2067 242.821 70.74C242.301 70.2733 241.888 69.7267 241.581 69.1C241.288 68.4733 241.141 67.8067 241.141 67.1V66.88C241.141 65.6933 241.394 64.66 241.901 63.78C242.408 62.9 243.108 62.22 244.001 61.74C244.894 61.2467 245.928 61 247.101 61ZM187.14 85C187.607 85 188.027 85.04 188.4 85.12C188.787 85.1867 189.113 85.28 189.38 85.4C189.66 85.52 189.873 85.66 190.02 85.82C190.207 85.9933 190.333 86.1933 190.4 86.42C190.48 86.6333 190.52 86.9467 190.52 87.36C190.52 87.6667 190.493 87.9533 190.44 88.22C190.4 88.4733 190.327 88.74 190.22 89.02H190.1C189.593 88.5533 189.113 88.2333 188.66 88.06C188.207 87.8733 187.647 87.78 186.98 87.78C186.367 87.78 185.827 87.9267 185.36 88.22C184.893 88.5133 184.527 88.92 184.26 89.44C184.007 89.9467 183.88 90.5333 183.88 91.2V91.4C183.88 91.7067 183.913 92.02 183.98 92.34C184.06 92.66 184.2 92.9733 184.4 93.28C184.72 93.4 185.053 93.4867 185.4 93.54C185.76 93.5933 186.16 93.62 186.6 93.62C187.173 93.62 187.68 93.58 188.12 93.5C188.573 93.4067 188.987 93.2733 189.36 93.1C189.747 92.9133 190.113 92.6933 190.46 92.44H190.58C190.607 92.5733 190.627 92.7067 190.64 92.84C190.653 92.9733 190.66 93.14 190.66 93.34C190.66 93.7533 190.6 94.1267 190.48 94.46C190.373 94.78 190.2 95.06 189.96 95.3C189.773 95.5 189.527 95.6667 189.22 95.8C188.913 95.9333 188.547 96.04 188.12 96.12C187.693 96.2 187.187 96.24 186.6 96.24C185.92 96.24 185.253 96.1067 184.6 95.84C183.96 95.5733 183.38 95.2067 182.86 94.74C182.34 94.2733 181.927 93.7267 181.62 93.1C181.327 92.4733 181.18 91.8067 181.18 91.1V90.88C181.18 89.6933 181.433 88.66 181.94 87.78C182.447 86.9 183.147 86.22 184.04 85.74C184.933 85.2467 185.967 85 187.14 85ZM198.052 85C198.719 85 199.346 85.1267 199.932 85.38C200.532 85.62 201.059 85.9867 201.512 86.48C201.979 86.9733 202.346 87.5933 202.612 88.34C202.879 89.0733 203.012 89.94 203.012 90.94V91.2C203.012 92.2 202.792 93.08 202.352 93.84C201.926 94.6 201.332 95.1933 200.572 95.62C199.812 96.0333 198.926 96.24 197.912 96.24C197.232 96.24 196.592 96.14 195.992 95.94C195.406 95.7267 194.886 95.4133 194.432 95C193.979 94.5867 193.619 94.06 193.352 93.42C193.099 92.78 192.972 92.0333 192.972 91.18V90.92C192.972 89.7333 193.186 88.7 193.612 87.82C194.052 86.9267 194.652 86.2333 195.412 85.74C196.172 85.2467 197.052 85 198.052 85ZM198.392 87.54C197.766 87.54 197.246 87.6733 196.832 87.94C196.419 88.1933 196.106 88.5867 195.892 89.12C195.692 89.64 195.592 90.3067 195.592 91.12V91.26C195.592 91.7 195.626 92.1133 195.692 92.5C195.759 92.8867 195.866 93.24 196.012 93.56C196.239 93.6133 196.466 93.6533 196.692 93.68C196.919 93.6933 197.192 93.7 197.512 93.7C198.166 93.7 198.699 93.6067 199.112 93.42C199.539 93.2333 199.859 92.94 200.072 92.54C200.286 92.1267 200.392 91.6133 200.392 91V90.86C200.392 90.22 200.346 89.64 200.252 89.12C200.159 88.6 200.012 88.1267 199.812 87.7C199.626 87.6333 199.419 87.5933 199.192 87.58C198.979 87.5533 198.712 87.54 198.392 87.54ZM214.884 96C214.698 96.04 214.524 96.0667 214.364 96.08C214.204 96.0933 214.031 96.1 213.844 96.1C213.338 96.1 212.904 96.0267 212.544 95.88C212.198 95.7333 211.931 95.4667 211.744 95.08C211.571 94.68 211.484 94.1267 211.484 93.42C211.484 92.9 211.511 92.38 211.564 91.86C211.618 91.3267 211.684 90.7867 211.764 90.24C211.858 89.68 211.958 89.0933 212.064 88.48C211.958 88.32 211.838 88.2 211.704 88.12C211.584 88.04 211.444 88 211.284 88C210.964 88 210.644 88.0867 210.324 88.26C210.018 88.4333 209.711 88.7133 209.404 89.1C209.111 89.4867 208.818 90 208.524 90.64C208.244 91.28 207.971 92.0733 207.704 93.02V88.48H208.224C208.491 87.8133 208.831 87.22 209.244 86.7C209.658 86.18 210.124 85.7667 210.644 85.46C211.164 85.1533 211.698 85 212.244 85C212.564 85 212.858 85.1 213.124 85.3C213.391 85.4867 213.624 85.74 213.824 86.06C214.024 86.38 214.184 86.7333 214.304 87.12C214.424 87.5067 214.484 87.8933 214.484 88.28C214.484 88.7867 214.484 89.3 214.484 89.82C214.484 90.34 214.484 90.86 214.484 91.38C214.484 91.8867 214.484 92.4 214.484 92.92C214.484 93.5333 214.511 94.06 214.564 94.5C214.618 94.94 214.724 95.44 214.884 96ZM208.104 96.02C208.011 96.0333 207.918 96.04 207.824 96.04C207.744 96.0533 207.664 96.06 207.584 96.06C207.504 96.06 207.418 96.06 207.324 96.06C206.964 96.06 206.658 96.0267 206.404 95.96C206.151 95.88 205.951 95.7667 205.804 95.62C205.658 95.4733 205.551 95.3 205.484 95.1C205.431 94.9 205.404 94.6733 205.404 94.42C205.404 93.7533 205.404 93.1133 205.404 92.5C205.404 91.8733 205.404 91.2667 205.404 90.68C205.404 90.08 205.404 89.4933 205.404 88.92C205.404 88.3333 205.404 87.7533 205.404 87.18C205.404 86.82 205.378 86.4667 205.324 86.12C205.271 85.7733 205.171 85.48 205.024 85.24C205.131 85.2133 205.224 85.1933 205.304 85.18C205.398 85.1667 205.491 85.1533 205.584 85.14C205.678 85.1267 205.764 85.12 205.844 85.12C206.284 85.12 206.678 85.22 207.024 85.42C207.371 85.6067 207.638 85.9333 207.824 86.4C208.011 86.8667 208.104 87.52 208.104 88.36C208.104 89.2267 208.104 90.1133 208.104 91.02C208.104 91.9133 208.104 92.7867 208.104 93.64C208.104 94.48 208.104 95.2733 208.104 96.02ZM226.877 96C226.69 96.04 226.517 96.0667 226.357 96.08C226.197 96.0933 226.023 96.1 225.837 96.1C225.33 96.1 224.897 96.0267 224.537 95.88C224.19 95.7333 223.923 95.4667 223.737 95.08C223.563 94.68 223.477 94.1267 223.477 93.42C223.477 92.9 223.503 92.38 223.557 91.86C223.61 91.3267 223.677 90.7867 223.757 90.24C223.85 89.68 223.95 89.0933 224.057 88.48C223.95 88.32 223.83 88.2 223.697 88.12C223.577 88.04 223.437 88 223.277 88C222.957 88 222.637 88.0867 222.317 88.26C222.01 88.4333 221.703 88.7133 221.397 89.1C221.103 89.4867 220.81 90 220.517 90.64C220.237 91.28 219.963 92.0733 219.697 93.02V88.48H220.217C220.483 87.8133 220.823 87.22 221.237 86.7C221.65 86.18 222.117 85.7667 222.637 85.46C223.157 85.1533 223.69 85 224.237 85C224.557 85 224.85 85.1 225.117 85.3C225.383 85.4867 225.617 85.74 225.817 86.06C226.017 86.38 226.177 86.7333 226.297 87.12C226.417 87.5067 226.477 87.8933 226.477 88.28C226.477 88.7867 226.477 89.3 226.477 89.82C226.477 90.34 226.477 90.86 226.477 91.38C226.477 91.8867 226.477 92.4 226.477 92.92C226.477 93.5333 226.503 94.06 226.557 94.5C226.61 94.94 226.717 95.44 226.877 96ZM220.097 96.02C220.003 96.0333 219.91 96.04 219.817 96.04C219.737 96.0533 219.657 96.06 219.577 96.06C219.497 96.06 219.41 96.06 219.317 96.06C218.957 96.06 218.65 96.0267 218.397 95.96C218.143 95.88 217.943 95.7667 217.797 95.62C217.65 95.4733 217.543 95.3 217.477 95.1C217.423 94.9 217.397 94.6733 217.397 94.42C217.397 93.7533 217.397 93.1133 217.397 92.5C217.397 91.8733 217.397 91.2667 217.397 90.68C217.397 90.08 217.397 89.4933 217.397 88.92C217.397 88.3333 217.397 87.7533 217.397 87.18C217.397 86.82 217.37 86.4667 217.317 86.12C217.263 85.7733 217.163 85.48 217.017 85.24C217.123 85.2133 217.217 85.1933 217.297 85.18C217.39 85.1667 217.483 85.1533 217.577 85.14C217.67 85.1267 217.757 85.12 217.837 85.12C218.277 85.12 218.67 85.22 219.017 85.42C219.363 85.6067 219.63 85.9333 219.817 86.4C220.003 86.8667 220.097 87.52 220.097 88.36C220.097 89.2267 220.097 90.1133 220.097 91.02C220.097 91.9133 220.097 92.7867 220.097 93.64C220.097 94.48 220.097 95.2733 220.097 96.02ZM234.469 84.94C235.402 84.94 236.195 85.1333 236.849 85.52C237.502 85.8933 238.002 86.42 238.349 87.1C238.709 87.7667 238.889 88.54 238.889 89.42V89.52C238.889 90.0267 238.855 90.4133 238.789 90.68C238.735 90.9467 238.655 91.1267 238.549 91.22C238.442 91.3 238.322 91.34 238.189 91.34H233.729C233.329 91.34 232.969 91.2867 232.649 91.18C232.342 91.0733 232.089 90.9333 231.889 90.76L231.489 90.96L231.569 89.72H236.169C236.195 89.6267 236.209 89.5267 236.209 89.42C236.222 89.3 236.229 89.1933 236.229 89.1C236.229 88.78 236.195 88.48 236.129 88.2C236.062 87.9067 235.942 87.6467 235.769 87.42C235.609 87.3533 235.455 87.3067 235.309 87.28C235.162 87.2533 234.949 87.24 234.669 87.24C233.802 87.24 233.102 87.58 232.569 88.26C232.035 88.94 231.769 89.9733 231.769 91.36V91.46C231.769 91.8467 231.795 92.2 231.849 92.52C231.915 92.8267 232.009 93.1067 232.129 93.36C232.449 93.52 232.809 93.64 233.209 93.72C233.622 93.7867 234.122 93.82 234.709 93.82C235.149 93.82 235.575 93.7933 235.989 93.74C236.402 93.6733 236.802 93.5733 237.189 93.44C237.589 93.3067 237.969 93.1333 238.329 92.92H238.449C238.475 93.04 238.495 93.16 238.509 93.28C238.522 93.4 238.529 93.52 238.529 93.64C238.529 94.0533 238.469 94.4 238.349 94.68C238.242 94.96 238.082 95.2067 237.869 95.42C237.655 95.6333 237.382 95.8067 237.049 95.94C236.715 96.06 236.349 96.1467 235.949 96.2C235.549 96.2667 235.129 96.3 234.689 96.3C233.862 96.3 233.102 96.1733 232.409 95.92C231.729 95.6667 231.135 95.3067 230.629 94.84C230.135 94.3733 229.749 93.8067 229.469 93.14C229.202 92.4733 229.069 91.7267 229.069 90.9V90.78C229.069 89.9267 229.202 89.1467 229.469 88.44C229.735 87.72 230.109 87.1 230.589 86.58C231.082 86.06 231.655 85.66 232.309 85.38C232.975 85.0867 233.695 84.94 234.469 84.94ZM247.101 85C247.568 85 247.988 85.04 248.361 85.12C248.748 85.1867 249.074 85.28 249.341 85.4C249.621 85.52 249.834 85.66 249.981 85.82C250.168 85.9933 250.294 86.1933 250.361 86.42C250.441 86.6333 250.481 86.9467 250.481 87.36C250.481 87.6667 250.454 87.9533 250.401 88.22C250.361 88.4733 250.288 88.74 250.181 89.02H250.061C249.554 88.5533 249.074 88.2333 248.621 88.06C248.168 87.8733 247.608 87.78 246.941 87.78C246.328 87.78 245.788 87.9267 245.321 88.22C244.854 88.5133 244.488 88.92 244.221 89.44C243.968 89.9467 243.841 90.5333 243.841 91.2V91.4C243.841 91.7067 243.874 92.02 243.941 92.34C244.021 92.66 244.161 92.9733 244.361 93.28C244.681 93.4 245.014 93.4867 245.361 93.54C245.721 93.5933 246.121 93.62 246.561 93.62C247.134 93.62 247.641 93.58 248.081 93.5C248.534 93.4067 248.948 93.2733 249.321 93.1C249.708 92.9133 250.074 92.6933 250.421 92.44H250.541C250.568 92.5733 250.588 92.7067 250.601 92.84C250.614 92.9733 250.621 93.14 250.621 93.34C250.621 93.7533 250.561 94.1267 250.441 94.46C250.334 94.78 250.161 95.06 249.921 95.3C249.734 95.5 249.488 95.6667 249.181 95.8C248.874 95.9333 248.508 96.04 248.081 96.12C247.654 96.2 247.148 96.24 246.561 96.24C245.881 96.24 245.214 96.1067 244.561 95.84C243.921 95.5733 243.341 95.2067 242.821 94.74C242.301 94.2733 241.888 93.7267 241.581 93.1C241.288 92.4733 241.141 91.8067 241.141 91.1V90.88C241.141 89.6933 241.394 88.66 241.901 87.78C242.408 86.9 243.108 86.22 244.001 85.74C244.894 85.2467 245.928 85 247.101 85ZM252.893 85.24H261.573C262.08 85.24 262.426 85.36 262.613 85.6C262.813 85.8267 262.913 86.24 262.913 86.84C262.913 86.9733 262.906 87.1067 262.893 87.24C262.88 87.3733 262.866 87.5 262.853 87.62C262.84 87.7267 262.82 87.8333 262.793 87.94H256.073C255.446 87.94 254.92 87.9 254.493 87.82C254.08 87.74 253.746 87.6133 253.493 87.44C253.253 87.2533 253.08 87.02 252.973 86.74C252.88 86.46 252.833 86.1267 252.833 85.74C252.833 85.6733 252.833 85.6133 252.833 85.56C252.846 85.4933 252.853 85.4333 252.853 85.38C252.866 85.3267 252.88 85.28 252.893 85.24ZM262.793 92.86C262.82 92.9667 262.84 93.0867 262.853 93.22C262.866 93.34 262.873 93.4533 262.873 93.56C262.873 94.0133 262.813 94.4 262.693 94.72C262.573 95.04 262.393 95.32 262.153 95.56C262.046 95.6667 261.913 95.7667 261.753 95.86C261.606 95.94 261.426 96.0067 261.213 96.06C261.013 96.1267 260.786 96.1733 260.533 96.2C260.28 96.24 259.993 96.26 259.673 96.26C259.073 96.26 258.52 96.1733 258.013 96C257.506 95.84 257.066 95.6067 256.693 95.3C256.32 94.9933 256.033 94.6333 255.833 94.22C255.633 93.7933 255.533 93.32 255.533 92.8C255.533 92.0533 255.533 91.3067 255.533 90.56C255.533 89.8 255.533 89.0533 255.533 88.32C255.533 87.5733 255.533 86.8267 255.533 86.08C255.533 85.32 255.533 84.5733 255.533 83.84C255.533 83.52 255.513 83.2067 255.473 82.9C255.446 82.5933 255.38 82.2933 255.273 82C255.486 81.9333 255.7 81.8867 255.913 81.86C256.126 81.8333 256.333 81.82 256.533 81.82C256.853 81.82 257.14 81.8933 257.393 82.04C257.646 82.1733 257.846 82.3867 257.993 82.68C258.153 82.96 258.233 83.32 258.233 83.76C258.233 84.5067 258.233 85.24 258.233 85.96C258.233 86.68 258.233 87.4067 258.233 88.14C258.233 88.8733 258.233 89.6067 258.233 90.34C258.233 91.06 258.233 91.7867 258.233 92.52C258.233 92.68 258.24 92.8267 258.253 92.96C258.266 93.0933 258.293 93.22 258.333 93.34C258.533 93.42 258.726 93.48 258.913 93.52C259.113 93.5467 259.333 93.56 259.573 93.56C260.013 93.56 260.406 93.54 260.753 93.5C261.1 93.46 261.42 93.3867 261.713 93.28C262.02 93.1733 262.34 93.0333 262.673 92.86H262.793ZM269.585 93.52L269.745 93.18C269.545 92.94 269.392 92.64 269.285 92.28C269.192 91.92 269.145 91.4867 269.145 90.98C269.145 90.7133 269.145 90.46 269.145 90.22C269.145 89.9667 269.145 89.7133 269.145 89.46C269.145 89.1933 269.145 88.94 269.145 88.7C269.145 88.4467 269.145 88.1933 269.145 87.94C269.145 87.6867 269.145 87.44 269.145 87.2L269.065 87.12C268.599 87.36 268.185 87.5467 267.825 87.68C267.479 87.8133 267.185 87.9067 266.945 87.96C266.705 88.0133 266.505 88.04 266.345 88.04C266.145 88.04 265.959 87.9867 265.785 87.88C265.612 87.76 265.479 87.58 265.385 87.34C265.292 87.0867 265.245 86.76 265.245 86.36C265.245 86.16 265.259 85.96 265.285 85.76C265.312 85.56 265.352 85.3867 265.405 85.24C265.739 85.2 266.132 85.1667 266.585 85.14C267.052 85.1133 267.512 85.0933 267.965 85.08C268.432 85.0533 268.825 85.04 269.145 85.04C269.772 85.04 270.279 85.1 270.665 85.22C271.065 85.3267 271.359 85.52 271.545 85.8C271.745 86.08 271.845 86.4867 271.845 87.02C271.845 87.4867 271.845 87.9467 271.845 88.4C271.845 88.84 271.845 89.2933 271.845 89.76C271.845 90.2133 271.845 90.6733 271.845 91.14C271.845 91.6067 271.845 92.0667 271.845 92.52C271.845 92.9733 271.845 93.4333 271.845 93.9L269.585 93.52ZM265.285 93.3H271.245C272.232 93.3 273.012 93.38 273.585 93.54C274.172 93.7 274.599 93.9267 274.865 94.22C275.132 94.5133 275.265 94.8533 275.265 95.24C275.265 95.3333 275.259 95.42 275.245 95.5C275.245 95.58 275.232 95.6667 275.205 95.76C275.192 95.84 275.172 95.92 275.145 96H267.145C266.625 96 266.225 95.94 265.945 95.82C265.665 95.7 265.472 95.5 265.365 95.22C265.259 94.94 265.205 94.56 265.205 94.08C265.205 93.9733 265.205 93.88 265.205 93.8C265.219 93.7067 265.232 93.62 265.245 93.54C265.259 93.46 265.272 93.38 265.285 93.3ZM268.625 80.94C268.732 80.9 268.859 80.86 269.005 80.82C269.152 80.78 269.299 80.7467 269.445 80.72C269.605 80.6933 269.765 80.6733 269.925 80.66C270.099 80.6467 270.265 80.64 270.425 80.64C271.012 80.64 271.492 80.74 271.865 80.94C272.239 81.1267 272.425 81.4733 272.425 81.98V83.36C272.319 83.4 272.199 83.44 272.065 83.48C271.945 83.52 271.812 83.5533 271.665 83.58C271.532 83.6067 271.392 83.6267 271.245 83.64C271.112 83.6533 270.972 83.66 270.825 83.66C270.185 83.66 269.659 83.5133 269.245 83.22C268.832 82.9267 268.625 82.54 268.625 82.06V80.94ZM281.998 85C282.664 85 283.291 85.1267 283.878 85.38C284.478 85.62 285.004 85.9867 285.458 86.48C285.924 86.9733 286.291 87.5933 286.558 88.34C286.824 89.0733 286.957 89.94 286.957 90.94V91.2C286.957 92.2 286.738 93.08 286.298 93.84C285.871 94.6 285.278 95.1933 284.518 95.62C283.758 96.0333 282.871 96.24 281.858 96.24C281.178 96.24 280.538 96.14 279.938 95.94C279.351 95.7267 278.831 95.4133 278.378 95C277.924 94.5867 277.564 94.06 277.298 93.42C277.044 92.78 276.918 92.0333 276.918 91.18V90.92C276.918 89.7333 277.131 88.7 277.558 87.82C277.998 86.9267 278.598 86.2333 279.358 85.74C280.118 85.2467 280.998 85 281.998 85ZM282.338 87.54C281.711 87.54 281.191 87.6733 280.778 87.94C280.364 88.1933 280.051 88.5867 279.838 89.12C279.638 89.64 279.538 90.3067 279.538 91.12V91.26C279.538 91.7 279.571 92.1133 279.638 92.5C279.704 92.8867 279.811 93.24 279.958 93.56C280.184 93.6133 280.411 93.6533 280.638 93.68C280.864 93.6933 281.138 93.7 281.458 93.7C282.111 93.7 282.644 93.6067 283.058 93.42C283.484 93.2333 283.804 92.94 284.018 92.54C284.231 92.1267 284.338 91.6133 284.338 91V90.86C284.338 90.22 284.291 89.64 284.198 89.12C284.104 88.6 283.958 88.1267 283.758 87.7C283.571 87.6333 283.364 87.5933 283.138 87.58C282.924 87.5533 282.658 87.54 282.338 87.54ZM298.83 96C298.643 96.04 298.47 96.0667 298.31 96.08C298.15 96.0933 297.976 96.1 297.79 96.1C297.283 96.1 296.85 96.0267 296.49 95.88C296.143 95.7333 295.876 95.4667 295.69 95.08C295.516 94.68 295.43 94.1267 295.43 93.42C295.43 92.9 295.456 92.38 295.51 91.86C295.563 91.3267 295.63 90.7867 295.71 90.24C295.803 89.68 295.903 89.0933 296.01 88.48C295.903 88.32 295.783 88.2 295.65 88.12C295.53 88.04 295.39 88 295.23 88C294.91 88 294.59 88.0867 294.27 88.26C293.963 88.4333 293.656 88.7133 293.35 89.1C293.056 89.4867 292.763 90 292.47 90.64C292.19 91.28 291.916 92.0733 291.65 93.02V88.48H292.17C292.436 87.8133 292.776 87.22 293.19 86.7C293.603 86.18 294.07 85.7667 294.59 85.46C295.11 85.1533 295.643 85 296.19 85C296.51 85 296.803 85.1 297.07 85.3C297.336 85.4867 297.57 85.74 297.77 86.06C297.97 86.38 298.13 86.7333 298.25 87.12C298.37 87.5067 298.43 87.8933 298.43 88.28C298.43 88.7867 298.43 89.3 298.43 89.82C298.43 90.34 298.43 90.86 298.43 91.38C298.43 91.8867 298.43 92.4 298.43 92.92C298.43 93.5333 298.456 94.06 298.51 94.5C298.563 94.94 298.67 95.44 298.83 96ZM292.05 96.02C291.956 96.0333 291.863 96.04 291.77 96.04C291.69 96.0533 291.61 96.06 291.53 96.06C291.45 96.06 291.363 96.06 291.27 96.06C290.91 96.06 290.603 96.0267 290.35 95.96C290.096 95.88 289.896 95.7667 289.75 95.62C289.603 95.4733 289.496 95.3 289.43 95.1C289.376 94.9 289.35 94.6733 289.35 94.42C289.35 93.7533 289.35 93.1133 289.35 92.5C289.35 91.8733 289.35 91.2667 289.35 90.68C289.35 90.08 289.35 89.4933 289.35 88.92C289.35 88.3333 289.35 87.7533 289.35 87.18C289.35 86.82 289.323 86.4667 289.27 86.12C289.216 85.7733 289.116 85.48 288.97 85.24C289.076 85.2133 289.17 85.1933 289.25 85.18C289.343 85.1667 289.436 85.1533 289.53 85.14C289.623 85.1267 289.71 85.12 289.79 85.12C290.23 85.12 290.623 85.22 290.97 85.42C291.316 85.6067 291.583 85.9333 291.77 86.4C291.956 86.8667 292.05 87.52 292.05 88.36C292.05 89.2267 292.05 90.1133 292.05 91.02C292.05 91.9133 292.05 92.7867 292.05 93.64C292.05 94.48 292.05 95.2733 292.05 96.02Z" fill="white"/>
<defs>
<filter id="filter0_f_163_748" x="28.9247" y="20.9344" width="126.41" height="106.3" filterUnits="userSpaceOnUse" color-interpolation-filters="sRGB">
<feFlood flood-opacity="0" result="BackgroundImageFix"/>
<feBlend mode="normal" in="SourceGraphic" in2="BackgroundImageFix" result="shape"/>
<feGaussianBlur stdDeviation="7.77909" result="effect1_foregroundBlur_163_748"/>
</filter>
<linearGradient id="paint0_linear_163_748" x1="136.663" y1="91.1651" x2="140.036" y2="62.1469" gradientUnits="userSpaceOnUse">
<stop offset="0.04" stop-color="#B5B7C9"/>
<stop offset="0.41" stop-color="#545A87"/>
</linearGradient>
<radialGradient id="paint1_radial_163_748" cx="0" cy="0" r="1" gradientUnits="userSpaceOnUse" gradientTransform="translate(144.689 77.3929) rotate(-55.4743) scale(16.5273 29.4757)">
<stop stop-color="#FDEFC5"/>
<stop offset="0.8" stop-color="#3C3952"/>
</radialGradient>
</defs>
</svg>
